<mxfile host="app.diagrams.net" modified="2023-01-19T10:47:48.269Z" agent="5.0 (Windows NT 10.0; Win64; x64) AppleWebKit/537.36 (KHTML, like Gecko) Chrome/109.0.0.0 Safari/537.36" etag="M1WssBn-zDkqVJl_Ho1B" version="20.8.5" type="github" pages="6">
  <diagram id="azQR3Nd1EpoWscI3bu8h" name="relational_diagram">
    <mxGraphModel dx="1434" dy="764" grid="1" gridSize="10" guides="1" tooltips="1" connect="1" arrows="1" fold="1" page="1" pageScale="1" pageWidth="827" pageHeight="1169" math="0" shadow="0">
      <root>
        <mxCell id="0" />
        <mxCell id="1" parent="0" />
        <mxCell id="lj3eqCaMpIstdUUsodNM-10" style="edgeStyle=orthogonalEdgeStyle;rounded=0;orthogonalLoop=1;jettySize=auto;html=1;exitX=0.5;exitY=1;exitDx=0;exitDy=0;exitPerimeter=0;entryX=0.5;entryY=0;entryDx=0;entryDy=0;" edge="1" parent="1" source="lj3eqCaMpIstdUUsodNM-2" target="lj3eqCaMpIstdUUsodNM-8">
          <mxGeometry relative="1" as="geometry">
            <mxPoint x="530" y="440" as="targetPoint" />
          </mxGeometry>
        </mxCell>
        <mxCell id="lj3eqCaMpIstdUUsodNM-2" value="Consolidated Tips Data" style="shape=cylinder3;whiteSpace=wrap;html=1;boundedLbl=1;backgroundOutline=1;size=15;" vertex="1" parent="1">
          <mxGeometry x="75" y="250" width="90" height="110" as="geometry" />
        </mxCell>
        <mxCell id="lj3eqCaMpIstdUUsodNM-9" style="edgeStyle=orthogonalEdgeStyle;rounded=0;orthogonalLoop=1;jettySize=auto;html=1;exitX=0.5;exitY=1;exitDx=0;exitDy=0;exitPerimeter=0;entryX=0.5;entryY=0;entryDx=0;entryDy=0;" edge="1" parent="1" source="lj3eqCaMpIstdUUsodNM-3" target="lj3eqCaMpIstdUUsodNM-8">
          <mxGeometry relative="1" as="geometry" />
        </mxCell>
        <mxCell id="lj3eqCaMpIstdUUsodNM-3" value="Today&#39;s Race Data" style="shape=cylinder3;whiteSpace=wrap;html=1;boundedLbl=1;backgroundOutline=1;size=15;" vertex="1" parent="1">
          <mxGeometry x="195" y="250" width="90" height="110" as="geometry" />
        </mxCell>
        <mxCell id="lj3eqCaMpIstdUUsodNM-45" style="edgeStyle=orthogonalEdgeStyle;rounded=0;orthogonalLoop=1;jettySize=auto;html=1;exitX=0.5;exitY=1;exitDx=0;exitDy=0;entryX=0.5;entryY=0;entryDx=0;entryDy=0;" edge="1" parent="1" source="lj3eqCaMpIstdUUsodNM-8" target="lj3eqCaMpIstdUUsodNM-44">
          <mxGeometry relative="1" as="geometry" />
        </mxCell>
        <mxCell id="lj3eqCaMpIstdUUsodNM-8" value="Tipper Ratings" style="rounded=1;whiteSpace=wrap;html=1;" vertex="1" parent="1">
          <mxGeometry x="120" y="440" width="120" height="60" as="geometry" />
        </mxCell>
        <mxCell id="lj3eqCaMpIstdUUsodNM-46" style="edgeStyle=orthogonalEdgeStyle;rounded=0;orthogonalLoop=1;jettySize=auto;html=1;exitX=0.5;exitY=1;exitDx=0;exitDy=0;exitPerimeter=0;" edge="1" parent="1" source="lj3eqCaMpIstdUUsodNM-12" target="lj3eqCaMpIstdUUsodNM-44">
          <mxGeometry relative="1" as="geometry" />
        </mxCell>
        <mxCell id="lj3eqCaMpIstdUUsodNM-12" value="Today&#39;s Race Data" style="shape=cylinder3;whiteSpace=wrap;html=1;boundedLbl=1;backgroundOutline=1;size=15;" vertex="1" parent="1">
          <mxGeometry x="270" y="390" width="90" height="110" as="geometry" />
        </mxCell>
        <mxCell id="lj3eqCaMpIstdUUsodNM-50" style="edgeStyle=orthogonalEdgeStyle;rounded=0;orthogonalLoop=1;jettySize=auto;html=1;exitX=0.5;exitY=1;exitDx=0;exitDy=0;entryX=0.5;entryY=0;entryDx=0;entryDy=0;" edge="1" parent="1" source="lj3eqCaMpIstdUUsodNM-18" target="lj3eqCaMpIstdUUsodNM-21">
          <mxGeometry relative="1" as="geometry" />
        </mxCell>
        <mxCell id="lj3eqCaMpIstdUUsodNM-18" value="Staking Table" style="rounded=1;whiteSpace=wrap;html=1;" vertex="1" parent="1">
          <mxGeometry x="405" y="580" width="120" height="60" as="geometry" />
        </mxCell>
        <mxCell id="lj3eqCaMpIstdUUsodNM-21" value="Recommendation" style="rounded=1;whiteSpace=wrap;html=1;" vertex="1" parent="1">
          <mxGeometry x="310" y="710" width="120" height="60" as="geometry" />
        </mxCell>
        <mxCell id="lj3eqCaMpIstdUUsodNM-35" value="" style="edgeStyle=orthogonalEdgeStyle;rounded=0;orthogonalLoop=1;jettySize=auto;html=1;" edge="1" parent="1" source="lj3eqCaMpIstdUUsodNM-29" target="lj3eqCaMpIstdUUsodNM-18">
          <mxGeometry relative="1" as="geometry" />
        </mxCell>
        <mxCell id="lj3eqCaMpIstdUUsodNM-29" value="Consolidated Race Data" style="shape=cylinder3;whiteSpace=wrap;html=1;boundedLbl=1;backgroundOutline=1;size=15;" vertex="1" parent="1">
          <mxGeometry x="385" y="390" width="90" height="110" as="geometry" />
        </mxCell>
        <mxCell id="lj3eqCaMpIstdUUsodNM-51" style="edgeStyle=orthogonalEdgeStyle;rounded=0;orthogonalLoop=1;jettySize=auto;html=1;exitX=0.5;exitY=1;exitDx=0;exitDy=0;exitPerimeter=0;entryX=0.5;entryY=0;entryDx=0;entryDy=0;" edge="1" parent="1" source="lj3eqCaMpIstdUUsodNM-30" target="lj3eqCaMpIstdUUsodNM-18">
          <mxGeometry relative="1" as="geometry" />
        </mxCell>
        <mxCell id="lj3eqCaMpIstdUUsodNM-30" value="Historical Tipper Ratings" style="shape=cylinder3;whiteSpace=wrap;html=1;boundedLbl=1;backgroundOutline=1;size=15;" vertex="1" parent="1">
          <mxGeometry x="500" y="390" width="90" height="110" as="geometry" />
        </mxCell>
        <mxCell id="lj3eqCaMpIstdUUsodNM-52" style="edgeStyle=orthogonalEdgeStyle;rounded=0;orthogonalLoop=1;jettySize=auto;html=1;exitX=0.5;exitY=1;exitDx=0;exitDy=0;exitPerimeter=0;entryX=1;entryY=0.5;entryDx=0;entryDy=0;" edge="1" parent="1" source="lj3eqCaMpIstdUUsodNM-36" target="lj3eqCaMpIstdUUsodNM-18">
          <mxGeometry relative="1" as="geometry" />
        </mxCell>
        <mxCell id="lj3eqCaMpIstdUUsodNM-36" value="Previous Staking Table" style="shape=cylinder3;whiteSpace=wrap;html=1;boundedLbl=1;backgroundOutline=1;size=15;" vertex="1" parent="1">
          <mxGeometry x="635" y="460" width="90" height="110" as="geometry" />
        </mxCell>
        <mxCell id="lj3eqCaMpIstdUUsodNM-48" style="edgeStyle=orthogonalEdgeStyle;rounded=0;orthogonalLoop=1;jettySize=auto;html=1;exitX=0.5;exitY=1;exitDx=0;exitDy=0;" edge="1" parent="1" source="lj3eqCaMpIstdUUsodNM-44" target="lj3eqCaMpIstdUUsodNM-21">
          <mxGeometry relative="1" as="geometry" />
        </mxCell>
        <mxCell id="lj3eqCaMpIstdUUsodNM-44" value="Race data /w Tips" style="rounded=1;whiteSpace=wrap;html=1;" vertex="1" parent="1">
          <mxGeometry x="220" y="580" width="120" height="60" as="geometry" />
        </mxCell>
        <mxCell id="lj3eqCaMpIstdUUsodNM-53" style="edgeStyle=orthogonalEdgeStyle;rounded=0;orthogonalLoop=1;jettySize=auto;html=1;exitX=0.5;exitY=1;exitDx=0;exitDy=0;exitPerimeter=0;" edge="1" parent="1" source="lj3eqCaMpIstdUUsodNM-2" target="lj3eqCaMpIstdUUsodNM-2">
          <mxGeometry relative="1" as="geometry" />
        </mxCell>
      </root>
    </mxGraphModel>
  </diagram>
  <diagram id="n2BnL1Qgg2cnG-jCBCau" name="Page-6">
    <mxGraphModel dx="2261" dy="764" grid="1" gridSize="10" guides="1" tooltips="1" connect="1" arrows="1" fold="1" page="1" pageScale="1" pageWidth="827" pageHeight="1169" math="0" shadow="0">
      <root>
        <mxCell id="0" />
        <mxCell id="1" parent="0" />
        <mxCell id="vZE2T41eaL5hG57d9Ook-1" value="Today&#39;s &lt;br&gt;raceday data" style="shape=parallelogram;perimeter=parallelogramPerimeter;whiteSpace=wrap;html=1;fixedSize=1;" vertex="1" parent="1">
          <mxGeometry x="280" y="120" width="120" height="60" as="geometry" />
        </mxCell>
        <mxCell id="vZE2T41eaL5hG57d9Ook-6" style="edgeStyle=orthogonalEdgeStyle;rounded=0;orthogonalLoop=1;jettySize=auto;html=1;exitX=0.5;exitY=1;exitDx=0;exitDy=0;" edge="1" parent="1" source="vZE2T41eaL5hG57d9Ook-2">
          <mxGeometry relative="1" as="geometry">
            <mxPoint x="200" y="220" as="targetPoint" />
          </mxGeometry>
        </mxCell>
        <mxCell id="vZE2T41eaL5hG57d9Ook-2" value="Consolidated &lt;br&gt;Tips Data" style="shape=parallelogram;perimeter=parallelogramPerimeter;whiteSpace=wrap;html=1;fixedSize=1;" vertex="1" parent="1">
          <mxGeometry x="140" y="120" width="120" height="60" as="geometry" />
        </mxCell>
        <mxCell id="vZE2T41eaL5hG57d9Ook-7" value="" style="shape=image;verticalLabelPosition=bottom;labelBackgroundColor=default;verticalAlign=top;aspect=fixed;imageAspect=0;image=data:image/png,iVBORw0KGgoAAAANSUhEUgAAArwAAAGNCAYAAADzdKLWAAAAAXNSR0IArs4c6QAAAARnQU1BAACxjwv8YQUAAAAJcEhZcwAADsMAAA7DAcdvqGQAALE4SURBVHhe7b2/T1xJ1v9/sJ8/ACFL0/RsME3gZAKvCdDTMA6GiQiQvjR2sPzYYC2imZX1GU+0gD1j8Eb2ox2tJ0J+AgPewKYdIA3RMIENrJAW1oETB/QE6wZLFuIPeOz+nlM/7q17+3b3vU03NO33a1Tjpm/fuvXjVNWpU6dudZRKH0oEAAAAAABAm3LO/AsAAAAAAEBbAoUXAAAAAAC0NVB4AQAAAABAWwOFFwAAAAAAtDVQeAEAAAAAQFsDhRcAAAAAALQ1UHgbwMHaVTr3wznqUOEubZnvAQAAAADA6XNi7+HdWjxP65//H033/pPu/nCfMlNPaSxtLlZki387QDPmL5f54Q8cl/njNCk+ptGFPI1OPeH8dJgvAQAAAABAq3CCFt4cZVLmI12mTE1lV8jS9O0PVOKw35cj6lyiffN3Syi7wkGB8p05+hLKLgAAAABAS9J8hXfnrlrq799bofGF8/xZLLaz1M/fja4dmB/Vj1iOR9f2aX/tmnEpOEd3d8xFhViJrbsBh8VN8kzakrbFLeWSYK+H03TgxCshGDdff7trPpXjxlt2Lz/73I+P6UAsxPY3nBZ7rWPxMT3+8Ryd++EqLe/Ib7js5Pf6F1652hBVlluLcg0uFgAAAAD4uGm+wts7TaXbGzRPc7Qp1tnhOc9SuzLkmXyPxbPtTyn97v95luCZ575iuLW4ToPGKqzSsXeF/rrjeHHsDVD3u5v6Oqctv/3QVxBZGf1m+/c63SZYy7JWJs9R93ae6GiC0mHFkxXS7u3L/r0c98zqVXpc1JcVfF/3QoG+k+tTS5Tbu+9f35ugwpUPtNHzjCZX9+jm7Rc0f5SndXWdlfjVXVqe8tPVqLIEAAAAAGg3TnzTmrKIdmWooepZ5yIVJ/vVx9SlHOWOClRQfxFlJ6cpaz6Li8RgD+uibx1rqCjfk+YXvYOsmO9SwVVK6Rath6y6QnZSK5rW1aIYUDwP6PHzWcr1XfefzYr/Zk+eVl4e+BZmyrHSatKXHqTRzjwVbNI4zutGuR5x4/HQcVVDp9HNPwAAAADAx0fTFV5tCfXdGJRFdG+goUvtIxcHfQU6PUYrrpIXWvrv30uwR4/jejp8h2ZWzf2uS0EMej+podZ35mjQ82VO0diNuL7JWZqeWiLaTpt8wW0BAAAAAKASTVd4lZVxeI46jBV0s4co11c8Gcuj+Meuzqo3Otil/82ehJvLlEuGubdrgroTKL0BSzLfVTg0HxuBUux1uvb7dnkyAaUXAAAAACCKk3NpcNwYalo+G4rzdoiduzSQxMIbInMhZz7VIkWDF3NBf+CdhzR+NEffDaWo0e9zSH1y2XwKgk1rAAAAAAAnpPD6bzJosJWzFukx+q4nT+MLxiXh+We0mMDCK29o8A+UEHeMy7R5YyyW/3Fq6KmxvJr71SazBlm1Q24aDY0bAAAAAKDNOLGDJwAAAAAAADgNTvwtDQAAAAAAAJwkUHgBAAAAAEBbA4UXAAAAAAC0NVB4AQAAAABAWwOFFwAAAAAAtDVQeAEAAAAAQFsDhRcAAAAAALQ1UHgBAAAAAEBbA4W3rdmiu86JbKNrB+Z7kIwDevzjObq7Y/4EIUTOzn8kciZ5vUqPi+bPCsgpjVIWkBkAAGgNzobCK0fpLm6pj1uLdQyoxcc0KoPx4iY16li5g7Wr3gBvw/xOwtglXz8+ZnWqOWwtDtBMzwaVbn9QYWUozqHIzeaYyiOX2bkmltmZRMn3XVbFToetxS9otuc5fWgpOasBl9nVUywzAAAAJ8uZsfDmLmTMJ6LeT+IPqEoxfUI02kPUYb5rGJ1LtG8G+dLwHN1aPd9CFp0DKhwSzX+eNX8D0Ay0nM2xnDW8fZ1hUkNPVL8w3Wu+AAAAcKq0uMJrluRXZym/nVZW1P49oplV/i6Ola/4mL5+d5NKN8bIV5ebRO80FftGaea5ky6x4DoWYE8ZVtal8ypfdDRB3d5vXIuTtoSes9cWN833cSlQ4ch8LCPo6hAsS98CK9Z0/ZurtFwU67Vcu0aP10y+Fre83/iKvvzmvJ9uJ2792zSNc7pUHZrfjK7t17a8Wys9l1mpYpmF87VM++ZKPIJL8+Uy5sY/T8EaCT3brEgoPGui85uIMvfujUh3eEVBl7dJ78IE5WmW+r3rwSX34L3zfJcluq5rLdcHSSZnfr6O8Wy14vPYlBnfs2NkI1BulerDfM9ltlKlzMrTHqqTA/NMdc2tS1Mn6lp5fqQuZIXKz3N4ZSj0XBWS1gkAAIAySqUPpVYPm4+oNP8v+bxRmv8+V1p+U/6bWkHi6Hj0gj9FX08a9n/OlehvS6V99/t/zZXo+7nSpvqb0/poo8I157twHCZIeonv1+ktlpb/1lHK/Vws+11ZeLNUGv2+g5/F9weCfbbERSouP279LB2H+Zvvsc/zy06nQ6WZn5Mzv1FlYe7f/3nOqR//Wfpv/ztdn3UELrOOyDILP0unNX6di2xJGb+JuKbjJk/2dNzubzcfuXUrcTl59OrE3h+8Xl5mwbhV+YZlxw2qLipcD8nd/s+jjszZfAXr2pe7KsHUf1DGJJTLmb5H/+3XR+VnB54TFVSedPmpe9Qzbd/wXv2man1IUHVSoczM74NyG7zm5zMibu/78r5K16Uft9SHK8+BMjBlXB43AgICAkLScLY2rRULtEOXKZM2f7caqQzlzEeiLE1POu4EvYM0T7tUiGWp2aL1vTna5Pv1MnGKxq7cofzrdceSVIH0GD29/Z5Ktzf4eUTzw8bl4vY0p4jZeUjjR3P03VDKj/vaEuX21vmpDj0bni9m9vM5osPfvGfPXxnjuwQdj0tqaJrGvPpJ0eDFHOXfFczfTcTJl0bytcj5+pX+ab6pxsHa/9Bs5yI9GOo235QzP/zU5E3n69m739T3QnbSlK8iS4M9nKS3wdry7w9ejyozP+4terid53vd+OOz9Wo2cG9q6FuaP8rTuiuHZXVdiCVnK0quRM46+Bkic9FyprFyFqqPep4tdC7RdeMukOu7XlY2ceqjEgdr92mG4/8pJNs+OVqesvEni1vh5Dl1aYRyRwXSLUTaveOGlB6k0c6EcQMAAIiktRVe4xLguTE4S7f+EnoLcVDg9Pm4y5YdPwzQjPm+Jkqxd5dbOYj7Q6PozNR08Qj4/vZO04cbY1RZFXSw7hom3d2srJ0YMfJVicI7TmfXZ6yW1UnIfUVkNsgdGnT8ObOTzuYu665hQvf2CpX4P31NZCFHmboSpv1rXfeRKDkM17W4AMWq61rUIWfy7LrrwKVmfVRGy0KmMelIBJcXK7gzr8zUs7hOK0c5Gr108ikBAIB2o7UVXhkAlQVJLCp6Y5jdKNaKm0G2Xt3yBnnx1esXK62yellLWBLce01olDLgWZQMIUW9frboLk9KSn3/8Xbs7/f5Nu+mUyFfcd6dkbkg6axz25UorDwh8a3pH2izx1yriS4z6it69+73jXJKTFrSGTquqLvp0sFampvMMerjWByrPqwsnAYpynTxP3sDWlFXcvHgZOoKAADanDPi0uC4MTTB8mItscexGst7Nwf2Rmj5mqOUOhYu9Yow89lDXCDCy8uCWsqcpf7FrcYrB8q1YpburR2YuA/o8fPZyGXhepG3aCh1jRWPr8ssvHpQ96xYSalUZk6+NJKvWzTS96dY+VJLy3tf0F+TvlrOw7HC7txNZFEUvDePcJl9w2XmWXjVknmexp+EN9A5KKV4ltbL5Fe7R8ysnsLrtyLrYzZ2fRyfGvXBZXaZbnGZldd36lKOZWHg5FeRuO7vBSbJZ+QVbwAAcAZofYVXLelqDt7umk9x8Xc8y4BXYoVGvT0g8RsPKuC8LaB7+xK9cCxnqaGbNO9cv3dhqdzCmx6jn/qIxhf0b/w3DqRo7EaRlg8H6Ly5X0JjXuifpenbG9S7nTZvUkjTeJfvU3g8snS9L0ezq8alYWGPRiMsvNnJDZq3ViyVrxhvabBwmT3o64goMz9f+nvJ13N6OtQdz24rvs9Ti7S7+l/mfg5lb2moAN/7nSilNk3PM7Qc26Koy8xzO+AyG+kb8S28jLg/bHa5b6YIT84478NzjuuCv6s/NfSU9vt2g+4xcfN1LKLqYyN+fRyHWPUhZXbHl1X3TQh8/8rUEu24riBx3/jByrVuVzLBtWmI+ZYFle6QKxMHHBgDAADHp0N2rpnPAAAATgtxxVgo0Hd245+gvsvT6NQJuaEAAECbcrbe0gAAAO1KhC/9wcs8f9fCb6YBAIAzAiy8AADQIsh+gqC/sfj0uq9YAwAAUA9QeAEAAAAAQFsDlwYAAAAAANDWQOEFAAAAAABtDRReAAAAAADQ1kDhBQAAAAAAbQ0UXgAAAAAA0NZA4W1j9JHJMU95AqfEAT3+8XjHWp82W4vn6RzL2XIRL3xpDOaEyBM5EQ8AAD4OzobCu3OXOhb1AbKixCU6alPu9Y7pbNygfLB2tWxAOli7dnKDlJzA5B2rC0CTgJy1B6oeuQ80/ahC+kbTX0nfda6sP3P7uBoTMycuAABoRc6MhTd3IWM+EfV+kjKfarFFd1eJNm9/oBKH/b4Omlz4K22aq+1OdlLyjSNJQXPJTr6nDyxn4+kO8w04Hlmalj7rxhjF7enikaPc4TomLwCAj5IWV3jN0t7qLOW308pKK6cQzazGXe6TgcM/pSh1aYS7/F367aSWXgPW5XLLtLIIe9fjWtFMmSxMUJ5mqd+733FdsNacyHjFUiO/lXjOR/xGvue/3Ti4rPfNVUXIau66TGgL/D7ti8XI/CbRcn2NMtPL51HPLrdAKavV4hap2vYslab8JJTJkFsm4es6fu/a4qaOtxb83KtRdVtmEXPS9cN8aFLmXguViRd/5XwpS513/3x5WiIxZRFbzsJpduXM/uau8xv5vlzOwun26zpYhnalx83b/E7Mds1lL3Kx78Rf3jbdMvNXhuT70bXHJk+cJiuvIctptIzWJvBcN04PUy/2N2UyXI3LNHpxl+6F8goAAB8DLa7wakvHZg/R/LBYKzdonlXW5almWD8aDQ9Mq7s6rcbCvDLkpJgHxfT27x3r8y71xxq8jPVnaolLQo4dtfE7ltz0GK14v4kiT+ML9+mzqf9T9272sEITGFz574UCfafiLdIyTdA3rMR6iqObr+HLHFdQGXm2/Sml3/0/es/X9/tyNPM87qBcvcxEGRg4XKQ35tp+H5U9uzqiuN2njIqfZelogh56CrIoEl/QTt9/vGe7Mra1mKbxrg1zjcvk8Apd5TKpSTrDasYuFWpMsmZWbbo47s7bdN+LWxTHAU5X0Tx7g3p58hecRNyqnC+Ws+7ty46cvUwgZ+9jy9kodfB/YbSc6XRpOfsiMFEol7OvrTJm0v3CPDeqfcgkuPvdTXM9R7ee/yM4MavG3gDL6LdKRkvDcxzXQ1+OWMYf0gMVr467gyaf+HHnt/OcJ6knTv/zDO1LGe0Zy6lMQFiGl6a47FTc5e2jGqmhp15+otharCyjccgM3aTe1+sx2yMAALQPZ2vTWrFAO6w+ZOpaomfF4ckk5Xu+pT+c2NJrnlZeRg8tW69u0dzwX3zrMw9E80d5Wk9gDToO88P+EnT28zmiw4IzCMqkwlrGUzR4MUfP3v2m/jp4+Yyo74Gv9PReVwP/uquAdS5ScbJfKUCpSznKHRWooK/EoFKZbdFDVjTmrvyBus03qaEH5c+ugeRbpz1LgzyR2nmrn3Ww9j80y+l+MGRjd9mi9T1W+ia92qKxK3fo2etfYygOGcp0GnlT1kyt/By83SXqynjKip+uYHlTcZ1WaIl+8hT/LF2XScQrY7k2VMrX1qtZvuascgx9e+JyZmVFy9lvVeUs/05Lik13v/pL0h3RPjqXaN/UiZUzU2q14XutjFLvIE+kZVKirihFftqZaKmVITfunptenuavBBXOg5d5bh9/9/uYqPZxTJ4dS2Fl+ehyJ3oAAPBx0NoKr1ku9NwYnOXVpLvaxUI3QY/ojR3kmk6WpqeWiIwrRnBJ9oAKh0Szq87S5A8DNGOungq1lFKjEBfe5T33Eh3SNH6kf2IZuTjoKwHKCugrXNWpVmZCjjKudpGYORrsNR8Z8XG2FmTJF3V9FlBePNRES8udl+/VWVY4q1ttNSnKdOWpwIV38LJAvayMWsXK9UuvyEGB8kcT1O08u5sV/yB3KuRLy5lqO979Z0HO4qU7F5Kzp7HlrBYh9xXud1Zi1rZuH586Lg3l7eM4ZCff8PTnj548JO0HhexXS7TDEyYAAPiYaG2Ft3eaAm4Mw3PaqnP7A007A3wtxN+vf2+OXtwY96yDxyX1yWXzKYRjtfOWfNUS5S4rTEEFbm7YLHt6wVkuPmk6M1RV/XLylfOW1/2QpD6qUrXMtOLow8pTg5SJzAVZQq42FXKX9U1geYpUkENI3Ltv/0nrr4kGv8pQ4SUrdKwYxd58aWQ+8OzJbOyJm3YHcsPZkLPTSrdyX2G10ivzii4b0Yz0vaEPgXQ3sH1w6YzdMP0Gp2uHJwWJld70II0e3qfHb83fTOqT35tPIdz+DAAAzjBnxKXBcWNI2AFbZXfztr88GkZ+k9hakspQLrDEqpfc5z+PtjEFFWS9fDu7+teQBTMB6Qz1UiOWSsVvdjZoLXMpPqavxZXg8/9WA3728zuU3/4m0UacegmWmV6qn33ub6A7WLtPM6wMXneUCbuUr32k49rl+FmybL33Bf01auOTKAjirxm5iSgurJx3DVKW641eP6T1w5jWalluP3J8WxOh5WxmNWwpT0CD5Wzk4pdV5Uy3Hz/dp/ZGFa+fMa5QMSVJ3Daebf+Z20c8uTsWqm7qQVxyLtPK613zN5OwPwMAgLNG6yu8ajlZo/wek8CD6L09+RBajl5swDAqlki1IcXGKxuL/uNbcow7hhfUZizXl/IJFfv+HUxXoh3XWZoennOWff3d4N7bHwI77INKj3+fpLsY3FDHd3n54jh6h8VCZexbYnUP5FvCMRQqlxplJkv1G11/pE/NdbUZy9u0w4P4Nccd4nmGXvTl4tvlZEl8apF2V//Lf75XH2JVk41qA/41DvI2ijiI9Sy/PUGklAfxoZylmaO4vuiyeUxvVHOfHXdyJpugtKXcv7dxcmbeKKCW/OPJ2dOhbqdGouRMX7Hp/kLda0KidNePLPnn9mxdp2nv4iMaiStJ3D4+cPuYXHDdleK2D9+VQrmt2DR4Ey3ZWBl0g5Iyrct6zBOpXlZwPUT+y/qz8riDbiYhOQy53kh9xd5ECAAATaajVPpwAqYI0DrIoJqmwpVKy6wyqMrO+lNc9gZtAOQMAABA63C23tIAAAAAAABAQqDwAgAAAACAtgYuDQAAAAAAoK2BhRcAAAAAALQ1UHgBAAAAAEBbA4UXAAAAAAC0NVB4AQAAAABAWwOFFwAAAAAAtDVQeFsU7xQrCYubMQ/IbRXMiVA/LjflZKytRTltyj/xq23YuUvnvJOqkuXPykui47HPPCJn+kSvkziBrZHo48yv0vJJHEEchZxqeJLlVnxMo019Xn2yoNrNsY4Mr82JtE0u36uNOvHSYNM9H3Xcetvhn3LoytBJyAc4Oc6GwiudsxE6GShG1+J2aY4Qq9DIAcZ0sE6Ie9RsHORo1dLtD7TfNxr/eFzQJMrrOvEkRAb8qgMSP2N1luaG36t6L91ujRPI7KDnhbBCIUo6f9eUI2SbGXe9qHp0yoND/P6oRZA8yLHd1+yx3IxSmNxji8vzVVkWotpHSNLTY/Rd1wR1n4by0ARl0CKTb3+SqkMrTDr1hMoNzcl/S2JlmfvoMkSX8MrEMSrsPKRxWqL920Vapgl6KHXI8Xwtx9dP2sPtwVnnzFh4cxcy5hNR7ydeN12DFI3dEOXBBHXG/V8pohnUSY6Wp0zcU0vUsf27j8zCVoksTd9mxe3GuD+gNpDspCiFJ68Qzg9bWdqg+b0r9NdGWj6KBdqhORrsrW9yYydI0cf41gkPDt3S4dv2I+GGoySdOiJnp5Emp92zLPRupxMrvdlJufcpjadPejJ7QI+fTBD1PYhoPyOB/oy2v3EUgtqy4LcPVhoOB5TS67aQ7KT+vjl95GnJApda3xv64JRLuA02pW3GoWfDS9N+3y71J1R6bbpn6uyTTgM1KXvCddJD5WYiO9EzMr7fRzS+cNfXB7oyjuzodtI7PM2SBdqFFld4jeVgdZbyPKjIrKx/j2hmlb8LW5rikMrwUBXREBpBOkOXzUePSrNJ5mDtGl1d2w/MxBMNBIG4o+4NWV0C5aUt355lIrbVRe67Ro/XzLP5Ppt++3zpcPx4o6YW5ekKWPBC+QooEgErVLjzlrRJGbvxzwcmN2UWKgl1WZyyNMgd6s5bVwKD+fLTLd9zmhcmKE+zPOjY34RcFg4KfJ0qWI1DZRZIs4k/Kk5BylPq3i27mHneenWLB83B6A5fBg+Ji9tm6WiC0jZtgXrRcualO1DX+prIjd8GTPpjxB2oy7L8SJnwb208EkL9hbS/sGWuXlm43pej/Ot1Hb8qZ0mnU2fus9008e8iJ9/V2oCK19Z3HdZlY8n6aaiGWpgepNHOPBVM9FuvZivLQhkpGrsyR7S37tWXRn8/8zxB323l1/xpUf0M15e0l8qyYOqA295KtbbHuP1w45bwHRkIP9PIgVt/Og1u+6lR166cqDyWKq46pYZu0jyXwbrpp8UyLSuSbtn5Y0gw3dGrou5vOATqKNTu62hXKl0R9V4VLtOv391Ukx7unsvY+oX74J6b3kTPlsmvUt+91/Uk7Ye0ah+Db7+h8a6Nk5+kgOYiJ621eth8RKX5f8nnjdL897nS8pvy38QJ+z+PljoebfCn6OvJQigt/5ordbh/v1kq5ULX6fu50qa5X6Xleyrlfi5GXrchOs38bP7O+7vsXkmbE3coSHmSF2extPy3yr8NBvltR4n+tlTaV/nT9+3/nFPxub+16Xa/kyDPrvysmPWrnh0uK50P8u7Xac39/Iav2nv8uFUZSD68+6sFXZ5aBu3fEtd783e4DMO/5xCZZiknLjv+bVl49ML7zeaj8roNxO19H1F2SjYkzjn+Bf8dlstqwd4bUY9e4N90cDkWI67t/zznPMeWkakPr778crNy6cVRJW4bomTPlpHfJkJlxmUw6tRfIlmIKD+VBnu/ipvbiPebCvVVQR50mVeqH1+m9d+VZKFyqNj+vDLx/w6kz5GF8v4zIh3q90bmAkF+Wyl/EaFCOUmZh/vFaFngoPIWUdYcbPuzZaLirSFzbth85PQxFUOFPLt1bcrLT2ONulblEqwvN49lbSl0v6Rbxh/7m4AMB+6RZ9h+zv2+ghxxkLj9Z4f7xnghOj3xg8qf04fadPgy6vY/4fqT/EXLC8LZDmdr05pa9r1MmURL2f5MtHu7RItf/XcDLbx5Gl8ws9jVEr1wltkPXuaDy4Yyg+z0Z9iKng1asZaW3kGebe5SIWyhiyRL065fUejeg7X/oZnOSlacLVrfm1N+SboctNXFs1DFYP6KXTaco+9qWYoiqP6sPK28TDSvDzA/bOsgRYMXc/Ts3W/qe6mPfGeOBk19ZD+fIzoqUEH/GQu1sqBkaYB2+v5Of7DL0cV1WglYzbTVb+ZVbcuGXTYsDXN6uDw3zBJkabJf/4DJTrrLar51Ob4dSpbgp0nFGLLcVaV3mtMi7hti+ZB8u9an2qSGpp1l82B9eDhtQNXJYSGZVaciOs+63IIWeSsLX5r6q0cWPMSqtJ132oRmfviJyXvUakAlDujx81nKRbobMCxneVqkB0Pd5ov4cqY5oMIhV2tFl7Bnfn+2EFrOdWRBW8bnq8gC97mrko/r/v0eGcrElT8hnSHPyOZYewvv8jRy4TP9/XFxZDB1KUc5loWQlFbl2fanzmpBxCpLJbhM1bL6L49Vvc+75V2jrsVaGe2WEs3W4oAaE667FsvORdo344jNd5w2cLB2v8b4csfxe00+vjQbbUlP08rFIpd/eZ8kZbUTKbvgrNPaCq9ZsvHcGJxl4fjL/8a3S4Wb9NvCf/G9jVqysr58PBDQbb00YpAO2bph6JCm8SNzsSLxBwJ3CU4UsBnzvSDPDvojOahJg7u8x4EHp5NC+fHRBHWbZwfrketK+Q7ackumYFUj9cllVmrytG4Go2RLtBrXR3H09e/ovHXZEHeEIz9PErpZCWoYoSVuaQ+JcBR9NQDdSOJP6LefzR6RmwQDemD5XpdJeNF1/nOnBkSpOgEfTF8WdFqSy4Iz0VWKYbg87wR8scVf15vYVoUVDu4jKiqkRs58F4+kcqbjr4zjw8t9GnGfG1xGd2XhdpksBCeERZXncuNCijJdcScAgijIejK/9YrlpctXyqScyuM/eYI+vMn2FqSGHtDy4UT58vmx65rxJqrcZxwu0X6obY1cHPT/To/Ryu14/qq1xpddulXf+OL0FyqvTp8q7heNGLVFRu9dKKq6EvksmzhxXytl9dMnD730J3YbAi1Layu81qpgFUuxgvHMcp+FtT7fmiTWliTo2ffs838EZrE57vR1J+iH6unOUSbGuCj+Tf1ipfXilTLyyVwQT+VquPeacGKbPbTCpZ7Jyu0Od0CBCYjqePX1ejZaVET5b/uKiiq/unffitXiDtHhb359G7kMlGnd8TvIIMADhq9si7Jhrp0w2UmRs7iTsi26y8ogOW1ArCkt8cYRJQvPaGJB+0cmlwV301ojNyOJcmc+VoLlrGie64XYaY8Rv4fxTX4XbfPLTr4okwVXRisr+LWszGFEQZbnbNH6YYauf060viNxxOsrW52tRbE0bij/0TLF6lh1zTib1hrZv9ceX+7UN74E+n5+htOnrgx1H7Pn0BOtwKqqI4s6blmZkLeXDNK6srjzs8UA00LWaXA8zohLg+PGUGlmGQdWHu7vjdDopWAM1loa32pcTmroW5o7mtSvM2FkmTTv7nKugV5yci1xNejkwct8VPeaz0Lq0gjleHYfmR+1pD1L/WbDx6niLldGoCxxDUIvAboTkHjWjGhk6fkWjVz8UsuiuJQcTdDX1SwBKq8hl5bYOIO7WCCSWngbxc46y1lI0RDl8ShPv1Z43Z+n2Jil/8rbaiKoEXe9iCyU+v7jWOWOIwuNRLt9zKxWmOSxnEkf803drz9MYl3doodcXwELvEuULMRCrMx13PeWFW+xSLJM7Lx6yHHImBBTBVIbim9x2zv1Hi+IasviFpalsWuht2LUqGtROn03AZlcTlbdtNZIlPtDlfEl13lLjS+thnJdctMtGziP5uhLsxqztfiFclULWOjNZmLQHrS+wquW4DUHb3fNp7j4/rsqLORpZEp865phZTI+VnawEuv08GV/6VOF0EBWccnJ3+Xavc3dGP9O+YiZTkTtLnWWe+5dWApYeNVM2VhPbfz+jlexsOrXA5231zg0ZtlGp1vSatOt4vc6v1B9mKXPv9jl39DSfYd6hYyvjKid2fK949oS1+0h+5XrKmFDMuuxv2SbpvGu5/TU8a+bvq1fT+XGX+auMTznxBHTNUDeX9rjLKE/z9Cya+HlMtP+gzLpsb9L4HZQEalLf4e4Cqo+Qku2nL4HfR2etdQvU9sezL0LBRpNauGtGLfbPng48uQs3ruRRRbkFYK+36Ubd3PxdsUHZNj3hxWfbr2y4afNb5siZy9Yzn7nXZOQZKKuJ+IPK+TV8eE1bVNbr/3y9kKULMRBFOUkE3tGlLsZrueMGCpkwn44y3FkSC9EV5IFN4fS9u7Q7KqVo0a0jxh4/Vmwbaq3Hsg1tXJj+jevndu0Va9r5QrhuYbdp8+mxOLeoPWTsnRLuTllVnN8eWPeeOBfPxm3AH986d9j5X/vC/18KwtqTHb64FWiTZ7sqr0NnOeBQ+szLSt45ndSRyH/fHB26ZCda+YzOEHktUjpd9/Sh0Yse4OaiBVffLfcpVb5rp82GuN6AM4MWhbeqAmLVRA+HlkQBVFv2KnsdtAs9LMLVxrpBgIAAPE4W29pAKAutK9WENlNTIEDTcDHwMcuC6ny5fMTQvxV8W5TAMBpAQvvKQEL7wkjm7/UMrKPbCo8eSsXOHVYFq4an0fLRycLsmz9PFO2c79pSPt7QvTTiW2OBQCAIFB4AQAAAABAWwOXBgAAAAAA0NZA4QUAAAAAAG0NFF4AAAAAANDWQOEFAAAAAABtDRReAAAAAADQ1kDhBQAAAAAAbQ0UXgAAAAAA0NZA4QUAAAAAAG0NFF4AAAAAANDWQOEFAAAAAABtDRReAAAAAADQ1kDhBQAAAAAAbQ0UXgAAAAAA0NZA4QUAAAAAAG0NFF4AAAAAANDWQOEFAAAAAABtDRReAAAAAADQ1kDhBQAAAAAAbQ0UXgAAAAAA0NZA4QUAAAAAAG0NFF4AAAAAANDWQOEFAAAAAABtDRReAAAAAADQ1kDhBQAAAAAAbc2ZUXi3Fs9Rxw9X6XHRfGE4WLtG536QaxwWt8y3AAAAAAAAaBqn8O7c9RROUU5H1w7U5zhoZTYY5ndK5mp1UkNP6MPtD7TfN2q+CXNAj388R3d3zJ8AAAAAAOCjoqEW3tyFjPlE1PtJynyKR66vSCVWXG2Y6e0wVzTZSfn+KY2lzRcAAAAAAADEoAEK7xbdFavs6izlt9PKOtu/RzSzyt/9+Jji23krUHxMo57l9y4/LT7acpym8SOTHhPP6Nq++QUjlmkv/pDLBF87J3lw0xBwmzB5t+HH5bL8HqxdLY8XAAAAAACcGA1QeLM0ffsDbfYQzQ+LFXaD5ilHy1P8+cYYJbPzRpAeoxWx+k4tcazJ0FbhIi132rTpsDLUrX8giuzqrk6rXBu+TOMLIaX6aIK6Fwr0nU3D3n1Ped1aHKAd1zJ9Y/z4+QUAAAAAAA2l8ZvWigXaocuUSeh6YK3D1tK6XIznw3scDl7mifoe+G4SvddZOZ6l9YC/ryjv06zWM+lBGu3MU8Ex4+Zfr1e1YqeGnrIyDFcMAAAAAIDT4vgKr3EJ8NwYFiYoT7PUz98l2SgW9OF9SuPpoA9vMyi8y4cUbe3+EKAzR4OespqisRsfaLpX/5WdLNIyTVC3uT/uRjsAAAAAAHByHF/h7Z1mBdVxYxieYyVxifZZcbWKYSsT3iwnIX66tQKs7ptaon+v/hfeBgEAAAAA0GI00KXBcWPoyrSQL2uKMl1EM6+2KGx/zX4+R/ntbxqzoSyd4RIoB5vWAAAAAABOl8YovMpvV3Pwdtd8agxaYQy6Svhva5B37J5XB090b68Q7Q3o34YOoMhObtA8X7MHVHhvaRDrtNqopr/XIe6bIEJvaPhBNrD950xYtQEAAAAAPiY6SqUPcDwFAAAAAABtS+Pf0gAAAAAAAEALAYUXAAAAAAC0NVB4AQAAAABAWwOFFwAAAAAAtDVQeAEAAAAAQFsDhRcAAAAAALQ1UHgBAAAAAEBbA4UXAAAAAAC0NVB4m4w9Ke6uPYquGRQf02jsE+JiouI8V3Zq3YmwczfBiXcANBbVZmvJ/Wm2DwAAAIk5GwqvKEBmYNlalKOBD9Tn2HiD0yY18lg5SYt/tLAOTVVsY7K1eD6ULiiPCqVI2zK5So+L5nvQhsix463RHgEAAJw+Z8bCm7uQMZ+Iej9JmU+1UdaaJ0SjPUQd5rtGkusrUun2By9M95oLhtTQ08jvm07Phpem/b5d6k+q9KbHaEXun8yaL844MulZ3aXlKVsmROMLmAiAOmm39gEAAG1Oiyu8W3RXrHGrs5TfTivLXP8e0cwqf/fjY6pp52Ul5+t3N6l0Y4x8dfmkMGmPtCaK9ek8nftx2c+DsT76FiltoTpn41jcNN8bXGvlwgTlzddRpIZu0jzN0rqJ21rJ99euefG7ljDXch1tTddp854fUKZN3uy1epd8OzMNrbOtX7iMem7SWFr/HS6TpsJyeFWVkSMTAfkNlaezEiETttG1x+Y+jsPWO5er/5tr/r0c/LrUzwtaOcPfuXIaUd8Bq3jS1ZVyOQlJsefyY4OXLnkul9G+KjuzYhGQpVDc8ltzRctvmsaPTF9hfhNMe0hOIyaEbjuY3/HXhqq2D073OU7nvpOv8G/c+8t/U15mmJQBAEADKJU+lFo9bD6i0vy/5PNGaf77XGn5TflvagWJo+PRC/4Ufb2eIHHmfi5GXvNDpTTL9x3mfvls86iDxE2PNviT/F0sLf/N/pb/frNUyrlxqr/nSpvqt3Jvh7rXxhWOX8XNf5Mpj/2fcyX621Jp3/u9/7vy/EladNqC3+sQLGf929plFAqSn4j01B90OvzyNXngMkictnoC52eU65q8OouoD688bV2/UX+rulH3mTRLubj1/a+5UodT9/K3/5xw3BwCshKun7Acyt9RshsvqLRXkBMJOm9O2t2g8iF1dIdTwX+rdPtp2f95zkmXzccb/iv4ndum/KDLuFJ/oNPll8v+z6OlDi73Yuh3ke1D1YeU+Qvv70AeA3/76bD31yozBAQEBIT6wtnatFYs0A5dpoyx0rUC1vKsQxK/0CxNTy0SbT+kx2v3aaZnw3F72KL1vTnanMwaN4wUjV25Q/nX6yR2ILFWUt8Dz1pZi63FAZrpXKLrrlsF/12c7Ffxpy7lKHdUoIK+Up2dhzR+pNNWjk73holXp3vOS/dxEcuYb5Grp8x1HGL9W7lYpP2+HOXfxcp1Q5gffmrqLEuDPVyUb1VtenWt0XX97PWvfpk5lun5K2P8C8sBPX5+i0b6/sQxGnqnabMnTysv9d3Zr5Yot7fuWQkPXj5j2bmuf19cpxVaop+GbIxZus5lMvPKtx6zhHtx1YXz7CBb9HA7z2Uy7ae9jBwtTU1Tv3xMD9JoZ54KJimpoWlH/lM0eDFHz979Zv6uAcvwxNEdeuHJaQTcHldMuaQujaj2ETN2r20pegdpnnapYGR069Usxz1o8qzTTYe/BdtHxTIDAABQL62t8JrlVM+NQS3dz1I/fxdcpj09gj68VqGJSXqMfurbpfHty0EFUin2Op+eYrfKA2US9ga8e/sPl2j/hqsocbovDvp/K3/EaoqHz8Hbf1d2N2hEuquQnfxAH7yyTl7mIkP3Luj6EmWm8C4f8A2vit346IX5suX56tyhQWfCIXlRClWFMis5Kmctqvq0K0XRum4c0PprotFL5vcHBcofTVC38+xuVkJ9ZFK2xJMyO6lLtrwu/uubPX7eZNney5XKd44yVZJOnTkaTFuVlCcCNxxf+FB9SLrjltnB292Gu8zEJXOBFVxPoZX6yNPIxS+9thhVZgAAAI5Payu8vdOsnGzQPA+MarPR8JyynuyzwnLim8CaASv03a9ztCmbysp8kudoM6DYcQgprVVxNq0luq8GqU9+bz5V4pjpFkQBj7infgtvijJd/I9jtRNlo3CYYAOk3aTkhRlteWwIUWU2HrvMtKXYovPlo62IympbXOcJ4wgrkeaSYNpT4NneygLj5LuezY+i2Ot4N6iXFeera/taLU1nqP4mvEV3efJLzmRTrPUdle21AVKfXDafTh79bKvQpmmcHtGDoW590RAuMyi9AABwfM6IS4PjxtCVSaY8xcBuIjlZqzEP2qu31BJ1dugBLdMEfW0HNmOV63c2JrmIlch3E9CDf7VNaw1FlmiPnLS6mHQPHPP1b3ojU7kiexwLb/ZzniztDTiborRrhmt1PRWcuk6OWcrf/l9fCTX5+s5T7PlX4rJyWKB/vszT5St/8NtPtbqM4HiKYoYyneajQtw68jT+JMbm0wp4kxXZnFpm4dWTHFH0y+B8zx1N0jdW+T4xxAVlluaHHfnliU1Q3XUJlxkAAIB6aX2FVy19atRSZCL8HejiFlHa+0JbCMNvPGgG3u72AZphdXR8QT5bJU7S9QXN9Dw3lmrj6+pZc2T5tkjLhwN03qRfgrX0pIyCrJei71NmSqzgjSJYZtZHedRTDrI0bSxPNl3+UrdO99Lhlch0nyqyWjA85+/aXyXajOnG0Vz8uvbLU5d3HFJDT6jY92/fJUK9ei2Ur/QYfdc1QQPbv6cve10raFRdht6U4HwfGXdFwm8bSNN41wY9Her27LAygdnkdLkuFfEmncbX2NblQoFGIyy82UluF45rjy+Hku8XnO/fVX1LQzSV2kccGdft3H1zhAre21qiy8xflQAAAFAvHbJzzXwGAADQNEShTVPhiuuSJd99SisX30CxBQCAJnK23tIAAABnlgIVjsxHi/hV83dJDtMBAACQHFh4AQDgpBA3kdCbS+aG39NMwNUEAABAo4HCCwAAAAAA2hq4NAAAAAAAgLYGCi8AAAAAAGhroPACAAAAAIC2BgovAAAAAABoa6DwAgAAAACAtgYKb9PwT2SKOiZXjkO9+sN5cz3uKU9nDzm2uSVOWjPoY4tP+hjps4I+6es0ykbVS13HK9eDtE3b9iLaZiKiy+xg7drpy9nOXTr3Y/joZtMvlX3f+ugj4I9bX8ej1fqz1qSR7avFsOP2MY/PL0fKrH31gFbhbCi88u5KMxgm7nACx6NepeVig9/CZuMvawByfKmcl1/h2N/0GD29/Z5KU0uUM1+BNoY7ytFmdWjNjPsk4DbUvX2ZNidP6qBnaZvc9iq1TXDyKEWivQZ8O7lu2vjTou1+a/EL2un7D33g8W+/j2j8l4QpVPnyy03Ge1VqMoFzvveDWwauoYkDj8uJkPH8VCaDclz6v2mAnx3vUHlQD2fGwpu7kDGfkpxKxMK/SrSpFE9pfB00ufBXStgEqrL1apbmh+XM/l/pn+Y70Lqkhp4qWfCPdgWni7RRaUPT3OW3D6mhJy0qZ2YifmOMztrZbtlJ6cef0ljafHEW6FyifTP+lIYv8/hzrfFGl5bigAqHeoz2jlI5LMRXIEXhXJig3mFTZhx+oof0D7ES904rJbp0u0jLnawT9BXNb2zfIcruAJF3r4zLVxprkbeGqsl+P38NQvqMja5J+mYNKm+zaHGF18zWeEDMb6fVjK1/j2hmlb+LNQuTzt0fSFOXRihHu/RbwzqcLVrfy1EmlaXBnlu0vnNCHZk3s3dms6HyCFoXIqwAodlyoFMIzbDFuu7lrOazZYn3vBe31FcQ5z5zb9zmLXm6yp3B1qJdLgsuGVvrv5v3ea9O3OdGL7NJvH6ZBH9TPe5qyHM5vdyJ52mW+iPjD5fJcswyiRO3TrsXd1ne3WenaTx89K0MQN51t7z1fcEl+6jvqnOwdp9mejYiFUMpa78+HBk28unKrOTx3A/zgclssA3ET5e6z3Wv4OcFrY/VyszUibpWLmcSt6TbrZOgHLlx21AeTyUCeeZ+s+SsOwWuRbqPhJ5d1sdq943IOql6r1zj37r9infd3McyvFJJhgP9kftMQdIkv3Wf7/zGWOz89iS/C5ZnUE7uhgwiOs/2enl/loDe67TU+YzyL8ViWe4KE5Q7t8yMPEWUWbjdu8p0OF9uuUlfN8p96b5xvZEQaB+hdi+/jdPb8ShLgxdzNPv8H7TPcXRv52n+StzJFZfJ81mlyLr9QWpoOtYkp7wv4fF/+A7lX6+bcquCauNcznIK4tEEdXt598tN9zEVykPKi+vOLfPwb4L1Ed0fZb9apI7t/w3UFWggctJaq4fNR1Sa/5d83ijNf58rLb8p/02s8GapNKrufx99PWn411yJ/rZU2ufP+z+PljoebUT8rkaaOU257+dKm1HXKgV1D7clL155hi0jDpIuJ879n3NeOv3rudJSZDmE4jJ/535+w3/x3zWeLXXV8eiF/q35O/dz0cRV/neSIPnoMGlR34XyKXGTpM3Ug6oTznfRXNchuj7Cv1VlFiNur0xrhYr1XCwt/80tE/m7Q5Vh8HdVQhUZCte9pNvPV9SzQ3XvynRUefN1W9fh67VD+HlOMHFJ7PJ3JRlW9Rj6rff7mmmpJAt8r5tvLt9RL65aZWZDlbiVDOv7w3Jky1T93rS1yPKJCuHy57+jZLQsfyZsPupw8hUOOp+B+g5dC5eJ/1spiw4nbfJ3KF+BMq4QIuXcPMsr61BapEy4DPw+IFQvoTKTsnH7ASkTt6yS9F+qnAPlL2mTMpa+VKfTLYNgvdgyu8Of7N/lZVZx7IjIl5sWyZf0pWT6meD1UBklDn7aq9ZnOKj8xHluqI5NiKyb2HGaYOQl3GbcoNuJGQ9tUOUdbLsBXaNaXQWClpHYbR4hUThbm9aKBdqhy5Spa0mLZ49PJinf8y39Id2YxQhxZ8hdHFSzV2U93ls/0ZnZ/LBd3hMLM08y32pfp61XtwJLxKmhmzR/lKd1ZdWws+gHfG95OahZcucSXQ/Mkufo2etfA7PkqGfLLPne3hxt1FjuiTXjrgTP4J8OdevPvYM0T7tUcK1fsoRofEFVnRwV6Df1VzW26OF2nuau/IFMzFxmD2i5c5bW3Vl4RNwF9dcx2HlI40dz9N2QtYGkaOzaIsvSrw2QJZ0v18KSGvq7ny95Ni3RT96zw3Ddu361ofLOfrWkZN668ojc5fque3JXGy6/I1khMX86aFehaeo3fwdlmOmdNv6Bj5U8u7/18t0MN4maZRYDluEVc39QjmTFiNvW5ybV6UEa7TRtqya6XR83zxXbppFT8bMua9uRMhyUDaIRWp6yaXP6jAbh90fawph/F69lWjmzZSZyNsdy9qtYSrk/u793p2G+5Qdr39DE0R26yf1XvBFIl5mW62RlFpWvQPsROhepyH21kLqUC/VneVp5WU/9iPX5C9rp+YFy9G/dVygrddgyXwttAdfW0Di+z74rRYB0hk7Mq8gZH6Tt5jqfUSFQhKHxJJIUZboa2zaAT2srvGZZxXNjcJZwkiybCluLaZqgR/SmYb432p1h9JJpYErAxa1B/9l85mjQacni3yaDaIdp+Kq8zNJJxw8DNGN+p5UM3TFULIeujKcgRRP97DhkJ4u0zDVhl4yS1mM5+UCnYicgCuVvFVcBGIlUvFzqj7sGnRnyPdQbTbRCGZegO4QrR4xSyKQTV9Msbg93HKUnBmoCG0UtGdaoScnhBI13hVwiVLzHy/fpwHLACu7MK6MaFNdphScEXh/TZLKTbyq2zYO3u9XltKky3Cwqy1kt9So2zvK4bMx8wX2GPzFrFvHaz0ioP1vx+jOe6E4tERk3wo6Qq1A1Dtb+h2Z7XtDTyRn6qa+Dxp88poODAuUTywdPmm4YP1z+q/aYXUFRPJaR7PhIepQsSfkOz/l1UuYu5JO5EH/CBpLR2gpv77QR+BzPdFn4WWDsJoAkm0Fk0O7fm6MXN8Y9C96x2VnnDiRP4wu2QxFfvpI/WJ0y847Tvw7WAqIH1aqENhmowa5h2I6MA3eqO9wB3D2W73OjFJvwbFxPDE6EsKVYBgjz8fgEJwRJ8iWv1pJ2Yzd9lr/VwPjrvfonlbg9zPYMJpsA1LC+VJZhjUxiVy5usNI7oPxiPSk6SatOQ9GDNu0N6D6FJ/ikVmL01eYT1TbNlU8u6w+VqCDDDVMcm0iUnI03aBUwsGntRJRdn1rtpypKAdb37fe9pC/KfJujKbzL08iFz9Rn2YS12cUK/6q/EloV1W7rtSxXUBTrUrYbR8CwpPQZXaaqXCoovVKG7iZ90DjOiEuDM0OraX0MYpXdzSqdjbViJbE2KiWwZ8MTYBVEIT9ht4ZytBIys1ppCcm/HtWB6aWtCXrolUX5cn9FVIdlLX5WYVIfozmmYrK1OEAznTkaPLZCoJcLZ5/7m1vKXTuOiVc25m+LchOYpXveBixZmr5FI31/iq88Vorb5GuG8+XFvvY/fr5SGa5rf5lTFMiyTWvOYKHK23y2qCXgvft09fkuLX313+bbuMjkK6yQC9VlVLFzV7Xr74ayavmctr+hf3jLnpJvnoyKdcl8kxhv0rdFdxcmaYVVNxV7nDKrF+MS5E8w4q+cSJmJsuxbhx/T1dVbNtXJCbdNkVPuF752JxaWSBkWt6kE7i38vMvUpI2/njIuy+RfcEotNfpKL036T9l0dKxNaxF4FkmzwSsRFdt9rTEgGalPfm8+1UaUzmfOpqvs5zwmxkZezcVKK7fluJs0XdTYxZNFfxzntsttIP6mOSbUvuvFuq982Rs9cZJyiqaCawZoCK2v8DrLnoktjWoAkQ/uTlYOSd/NV8YBrb/O+752FtPxqw7IuGPopSRrCfZ3B4syqHZ8BnbaNqiD4pn1ft9uMM/ObFJezSXXv3CuezveZWZvrDs2/Tt9RfpLhYYbRPv7zq7qXcXd7/4fP8dt2GZ3sReSxG3gDs3ulO0/XKL9uK9XqlEf2cn3tNH1R/rUxK3eC9vQVzfpsvGXGe2z+fvbG9TrLR+yAtX13PdTjkWluCVfxprg5euSny+u65/ED9asUty7UKRNVpAtqaFvlZJj7713YSlk4RVEuXxGz2iEvkxsFTMDs6OQW6Jk1JNhqUv3VWacj+9YwZ1wXvkUzrcEbyDk+7UMRcuCcpXwlvbv02fDi5SjDm2pqVFmteKuispHqK/i4L6NohrZSXkNk7UO79G3UzrdGt8nUilW9neBtwLYt0tI0G0zsOPdyKltf35/FSXD2k85vkSIDN/x+g63zLzd7aG+MlYv3jvN9TNr5ChNe1eek6uCWTkL9pX2LSk6TbZddb+7GerPjoP2c/bcBp5naDNx3OXt3sp/dL5iTgC9vtKE1V1anPpLLOu0erVWzy2/3cprQTmN8palOHKsXhs5fNlrX7odxVwpiBi7SsP/l2g1ONy+fRn3x67+vRLn51PVDgJ5quK+Yg+isaHi+FJcpzwryq7LIGgcHbJzzXwGoKWRgS/Ng877qI0z4NSQVxzdu/AfpaQnrxcZSPS7MxMNTO2IbO5ZKNB3ni8lo77L0+hUguVoAMDJIpMEnrTENsBUwPalK4kMHiAuZ+stDQCA1oI7+oG9JDvPw1grVWNWN840Eb7bBy/z/N3pbboBAJwMYgUeOFykB1B2mwYUXgBAcuyyZ4LlzoqoV4ztUn/kYQgfEWb53V2GVkufrsUXANCGyF6Z39PGjbHGbawHZcClAQAAAAAAtDWw8AIAAAAAgLYGCi8AAAAAAGhroPACAAAAAIC2BgovAAAAAABoa6DwAgAAAACAtgYKLwBlyGEI4dOx5Lsz8K5YOaig0elUryCLeVrYR4M+eSnuKWgWdWpYzdevmVOd4p6MdYJI+uWEqfmGHgFs8quCf1pYI7EnWzY23c1FDiGwp9qNrtlDz5uAtO8mypoc3Z+0nYAIVN/O8sD9R0OlWOJtwb6mGZwNhVcapBkkkjUe/zjNRnem3nGXTkjcmTa5o6kb27C80JxBKEi4riQkV9yO37lKOuRY1Qehk63knPdd6m90fdn32ZaF+cYqrS2FKDjnnTPvLVoGyr8HsTF9ShPVoyYgRxN/oNLtDXV0dT0HmLSjUiXHnX/gctnsaeK5ktLXr+7S8rVGHqMO6kEmODKxOfEpmRxpLsewN1qRbkHOjIU3dyFjPhH1fhK3aaZo7IZ0pCYMX6bJhb/GO4M9Dp1LtO/FPUe3VqMG8dMn2WDAysjCBPUOO+V2+ymNp0/mMN9cX9F7rn4J/8laVQ/W/kzjtEQ/DZXLmJzzvskdw9dclg3rGHqnTX6LtNwp+X+jBrnS7ZkWO2ygkad9ZWmwh2jmVahmi+u0cjR3ps6Rj98XJcEogMc8prQZSBsQ+ZzpPZn+oFGkhp6cyXQ3F55gPpkkKpvcg5aEFdMV6ReacLR+dpLHn8MB+usZWgGphxZXeM1S1+os5bfTyvLVv8cD5Sp/V4+lLZWhHP/TlC6PFZdi3yjNPHfSFbLeecowz6qv/nBe5YuOeGbl/cZV7rS1yy5pdSzWo6brOPoPoxW4SHbWaYYqKR0Sn8xC3ZLXz/C/07/x0n0MhVU1ws5Zuuc8zy5N6rj9ZXZrcRf5sLJiy81rwoH6iFqil9NuSlWtHdmvloi2H9I/zd8BjGW84ZamsMU9vCTu5osnK2XH0wZWI0JlFmpH9ruAhVAp5dGnfcnv/fqIb53Nfn6HaG89IBvqGN2eQe85wbjDbUPy4S6F33UmsvJ9sH7LJn1cZlFyZAmWWdTqjVZKp+tUziU9UXEHnhvp+qCt495vbP1ZGTF9StpeD6wUuOXFIVD3ut1K/flpc8vFvbfCik+ov5Py9n8VenZk3pJj+4Pydm/jr55uKW9JZ6X60OXiX0van1WWo2gZjhe3TlOwn9H1l8hCuPOQJmixfGxQsiRpcdL243KgTwjmK5xunRbbvqRufCTOcNvU6fYJyUqgP9Jxe9fK5Ch87zLfERPpE6RNuP1tQI4k3Y5Eq3Sb2EX2+bduucStC3tP/16JZfhTv19y8ubKZ3m7ukuPTRyja1tKNoJtN1gf5WUmpGjsyhzNPv/HGVsdSoictNbqYfMRleb/JZ83SvPf50rLb8p/Eyfs/zxa6ni0wZ+irycJ+z/nSvS3pdK++/2/5kr0/VxpU/3NaeVnRV9zvgvHYYLkmby0FkvLf+so5X4ulv2ucpCy0nFEX68UzH3htJogZRhI85ulUs6pEymX+spY8khlebTloP7mZ80716PqQH4fWU6hdFaqj44K9eEHnc75f70vv6aeUeH5NYPN/xv+y/1e14eWf/9veYb6HT9z1M2XSoOTr7Iyc+ovXCZOHcSqv/CzEoVwvmy5mr9N/Ygkyd/Buta/JS/t4bKTuN18heTCKzNTh2FZOFa+qgeVD0dGVJ8UIXPqdxFtd/OR9ANvyr73gulTpAaD1/y6df/2nyF/dwTSFmh7XrBlG5J/VYbBMnfD5iO3PMN1734fEXeMULHdeyE67nB9qD4gIHfcXiLqIVYIy5WKO1daUmmoJMPleYiq87K+LyzTMUJFWVLy76ZNyq7D7/NC+QqnReLtePSCP9m/3XzZetDX7O/9dGjZqFSXNm79d3mZ2WfF6r/CQdWP5NvkTZWDWwbB8tXp9uVG5MiTFRWXL0dxgi2Hamkvz5+uG/VckwZpV26ZB+ujspxF5bHdwtnatFYs0E7ipVV/xte9XaLFr/67ORZewViQNVmannRsYr2DNE+7VAhZkqLZovW9Odr0li5k9nWH8q/X481W1QxV/FCLavkjGdpy5Z7p71rtUkPf0vxRntZNPrRV7mZwSSxkuTsOmQt+icqSzrRjjUhdylHuqEAF83c1JJ2Bpbve68p6vO7k7eDtv4m6MjWWkVOU6eIJ/dsItwaz5LQS15oeg4O1+zTTuUTXPUsi18/wnCcLW79MUqnv75WXJMvKbMQvM/Hd6snTyksjVcal4Dv+ffw2ImUY26bkEHJrCLkzbL2apfnhaerXf7Lc3QzInTA//NTkO0WDF3P07N1v6vtaaFn4O/3BuulEyILOl/nYaHo2PBkJ1EdMnsXtB1x2HtK4qVsN9ynXligXbqtO2rKfzxEdFmI864AeP5+lXJWl8eyku0Kg617aUEvg5Fn66Tnup39zLcF19We2TK77+e6dpo2eZ5Tn9mZjD8tw/l08SQi3h4OXHC/3w55M1+SACoecpCouOX7agvVl26bNVyAtPPbc37tDG5P9dY2ztr+LXpGUcVHHrdFWyfC4GHucjCRHy1Mmb+lBGu3MUyFuZOLiaMfbKDlqGiO0/JV5bmCsEPwy83WJ8jLTZCjT+Sx+fs8gra3wmiUyz41BLddqRSy+r6zxh1PhJv228F98b5OE8KAQWE52lyE6WAGdMd/XRCn2vsKpgixVxkR1fuZzvWQnTZmxciVl7y/PSOdnlaQDWn9NfmNjxMdvo+cWfWHSHVx2S07hnZuT0NJMxPJ9JSSewJLnD2lWAMxFg35WbdkQJTyuctUQairh1ZAys3kuLzNRamznpxVBZ4CuhSj4LB+zq2aJMcnyIaMUKqNMBN0Z9GCs2rxXXwnaTw20LDhLh2FZMPnynh9azj1NspNvaIn+6LlBxe8HmU4e0MzHSsx/7tS+uLLE8iNmhZ3Lr6o/c8CFJLzM3Wr4g774/rqT/6T9WXN8vIXyfngpkTFH11llgm5tsoFuZaibPzW/bVbs73hc3KVbVcdF5QZHE/SpuZ54I3lnjga9SRsrhzfqd1tqCWKUmU8VY06b0NoKr/IdlJ27MuvSypfdKFafEDbXsrD16pY3qIhfTr9YaT1lW+9Ajo97rwkxN7FIJy3P6xUFL9JfJwFcB5tcZs8cy4OnJIlVjuvG7yA0dnexTUP9Sq/MTv0Ni1uLae7KHtEbWx5TS45FvTbuhjgbXDnS1uTaQ4Z0yiMXPjN/nQAhK9vB213zqTZSZrIJz9tcGS4zWXlQ1hk9aI5eSjhAs3zouv5Am12siAX8QmugVj3EkirPzgeVLWY+sHFSgrU4HZ8Rb3OgHwJ9iup79PeSr09bRumVQfi9ThvX5Q4rHrGV3rAlOTRBrx+xDJmPURQf09XVWzQ3bNItZcp9SusyQhmnGXiT/zr6s+BYo5XFRuH2w9wj0ZeJNhbXqLMaNKttBlb0IrlTY1zUSqpq29w+/r0qBi5z6aOlVplZfKt/Pdb5s8AZcWlw3BiOY+1Syy0jZYO6tcQep2HI5okBjjuw4cmxqGwtRsyCxQUitEyrUEsps9TPymr9My2xbOudl+GNScnQSueI85YMtQTMqufXT/LUe6WaEl6hU7WbW6oq42KZ5DILL2959c/Xn5RbeKXDjFquUYPD9jeBzRJhUp/8PsYSbpVOwWx2OK5V20W7bUzQQ082ZWMdK4dc7mJvUdbm17+aNG+pN2yUKTGBMpsMXZfXrRGNP/mGVrpCrikJqT1YhdET0Jnn/OzA2xn08u7MqrsRLSn+UqSefOrPgsjCs+0/BzagVCPuROjESWeobN5v+pRfw3kzkwt/AyjLQnjJvW78+qrcoh0lktt/oy28ldp9UqSfnu2spDwmURKNi8L2Q79MZJPY0R26OdTdGGly+uHLV/6g+oP4+Na8ZNSoa5bJy3TLc3MKtz2N2zZl3PRlVfV3ewPRYzGPi7nOWzQQdwO3SksjqZzuRhDsyxuEU2a1UytW/+Bkr91ofYVXLe9rkli2NKEdmws8D556woN6gwYv5w0L3duX6IUzy9V+Tf71exeWyi286TH6SZSNBZtG24nILFUrq+fN/RKSK1J6tmtfpRUHd5epDgPKF/hpoJM2nfnR5dDbHPTyeWCpuMvxj4uB73ag73VnovKGhNzeFRN/mgoXyy28qaEHahDw3nxhG7pY7IYvO2UtIdRpi9/V0aSjXEbg+ZqekAIky+vGkqfTrOvDWiNTQ3+nJZo0+b1PmangSoIuM570qOtp2rv4qLzMlFLNk5eQhbUWYVmRNrAZcxXCotwa+Nnu2xkEcY3Z79v1XGNUiD1x037Odtm1+93NoEVRrNLqFYXObm9HFqLy9YLzlUyhqAfdfvQzeVpi682bGEp/5qY5KAsK06dMeHmzb2mQCbBZ9VHfJ2ybdpKqlq/z3I4kfn8nuK2vfi9tur9SbY/TdLPnmZ+m5xladuujRtxxKG/3pszixO21j3PqjTZvboybupb6sOUoIVmZlZXJ6i4tTv3F80uvjl/Xdve+fA6OAX4//GUd/ZG8KeXZ9v8G+8AYRNW13zal7d3x3Jyk7e33uT1OuG3+P3rhvme4rL/TcevVFRnP3tDS4RX/Gge/TELjvWof/6lzNTiMTrefr1C6G4Dty607RrDd6+9k8iBjpIyB8d4C4ZdZTV1iZ50ne7mEKwVniw7ZuWY+AxAbUQqkM0u+Ka61kZl79+sR2q+guMlqwL0LMgFoo2UfsUwvFOi7Cq8eA6BdOev9mE3/B2+DcxJEof+UVi6+SWSUAO2IyEKaClfe8wShfRXes/WWBtAasIL09XZws1q7ILNstUwYMQOWwcW+07h9ugTu6J5MJNusBgA4fZx+uL7+KEVj1xaJarh6gfZH7fXo2qC/tLGyK0DhBfHhDlYdmLEgJ7E1bgNRayFLQLL0Gx4ExHf2cuIl+9bFLp8ndzsBAJwiZq9AQ/phcSEQV68nx9nnAc40LE/3DvUr1dpb3YVLAwAAAAAAaHNg4QUAAAAAAG0NFF4AAAAAANDWQOEFAAAAAABtDRReAAAAAADQ1kDhBQAAAAAAbQ0UXnDm2FqU026SncTUaCQNctJNLHbu0rljHe98FpDTgE63ThqNPnL8Ki3HPIL4rCH5C5y4JK8dbHs5BQB8rJwNhVeOhzTH7JV10nERpUPeXRjrTOk4hI8x1Ef9gWOi3jFZ7Ux+0HrIO32/oJ2+v/vvBLXvCvWOx2SM4i+tRE60Cx8VrI709b6zCnSF1ip9Ql3KmX7/sH/8tdt+T0jVqzvt1VHlF87Xj8vxnyNHAHdNUrdbZwAA0CacGQtv7kLGfCLq/STpS/J58FzdpbkeOdO7ka9WztHy1Acq3eYwtUQd27+juzvmEmga2cn3XObtevDF2eNg7c80QYv0YKjbfGPJUe5wvcUmL3KwyAf6IG12eI57gznalM8cwodvZCfl+6c0fkbOlk8NPVX52O/LUUfnEhUlXzfGEx2Ukp18Q8uHA+jHAABtR4srvMaKujpL+e20slj07xHNrIrlIr6FZGtxgGZ6btKfLjRW3Q2QztBl89FDLDmetcVd7pV83aXHxiIzurZlTr0K/8bey8Gz1GgLVdAa5X9n7WFBa08Si6lO25a10Klna6ucJWxJ8gdHSYfkQeIQt4Mkzzb5XZigPM1Svxe/Uyay5FoxXvfZ9t552jRXVV0sbgXSHrboidXRt/xFxW+viRwmXycoVHx2eV375a2fK2Wsl9gluHLCBOQsKl9ufc2H8hV+dlLLo5xAV6Kla3+gsLpL3CJGL+7SvVB6Wh5X9lkOPBlSSHmVt49ADrk+XAuyVx/2Hu7P6GiCur3fuHUSlLOAhVxdO8+yUKosC1UJy7D5OgBPCK7M0czzxlugAQDgNGlxhTdL07c/0GYP0fywWFs2aN5aVeMe8cqDT//eHG2qY/OaaKnZWWc1bYQyNlEyuK3u+hZgOb5xwVWibtH4u2+VlSm/PUCFK5LPPK28lGFGBqYB2ukrakvU7SIt0x/NUmOKBi/mKP963RmQClQ4ytHopZTOIee5W47BVfeKxWeX+hMpMqxwLhToO3U/lzkPzv/Lg6wiFLekf2bVHXTzNLFwnz6b+j+d7s7ZmAqPrmuxlOccq1vAkpseo6e335vfRJHnMr5PGVPmmz236QvXhWVvgLrf3dTxchyBM+Q5X+nt39ML89xwmdmzxnWaJO6EssRl2G+frer8oZEFv6513LquP+V0u8gk794F/RuRk/Fftky+WAFz5YxDwFJZJgsvQ/lyn80h6dHJIvedOfqyghU0M3STegOyegaQ41alLIyclefMbR9SXxP0tSfjuj6WpmQVQpepVx82Xq5/6lyifXO9dHuGpV8TlDOO+3CgbAIzu3q+TBbiUC7D5kKY3kFu83laj61IAwBA63O2Nq0VC7RDlykTeymblYnns6wsT3sDSmMRBctYTFZLrCz5ytnByzxR3wNfWeu9rpS/dc8aOkLLX5lU8eB3vVd/VOw8pPGjOfqOB0o92KZo7Noi5fb08nCKlYjAgMRKh1iw7bO2Xt0K5Lns9zWRSYW9P0uDPDDuvBXrsZTnLcr1XffLs3daDbpaUdfMDT8xy8BGOX9X0BdOgHnnbPns53eIDn/zlS1RMnjio0gP0mhnngrmopTZ3PBfqF//GSwznrzcM5OmunGfLQoF7VJB4nbqWmPr+ldncsT0bHiKU/ZzVpgOC44S+SxQ/i5br4Lynxr6tkwWgpOnZBy83SXqylRRkll+uiboYVstkbvtI0rGK9dHdbZoPSBn2tpaVj89L6rIQgUSyXCGMk7bAACAdqC1Fd4dvVTruTE4y91xfMwO1r5RFo1pV5lsKNaHVyzPt+lXawVlCu/ynhuGDmlWbMzFOHTyoGM+liNKqK9kKqXmczuQHVDh0JSX9+wBmjFXG0FyH2oHU6de+DHoLtFwjgpUTd0WRd6WmVjOmlVmVala1xq/fhmeZIglVrsQZGl6apHIkzV3FaG2LGQntYXSLq8n9d0UOaca20CzXy3Rzqt4Vsgzi6d06voQf/7y+qiBmtC77jwcxP0hxFyELByjRUaQokyXbRsAANAetLbCK52568bgLAXWVmIPaP01D8Z7A97g0b29QiX++1wiv7c4ZOl6X45mn//DDHqanLtUbEJs5TusqB0UWNn3EcuOtvxoq9BgKF7tAuKGxm3yCg6EWqmKjapTJ12e4tYkaiiTrvI+N+wvQ+twQhvjatR1TexSOQflihFSsqrLgt7Epb6fYsWUleMkSm/mQoyNoGJNP7xPj9+av5nUJ783n0JUtRa3MG66retNhfqojuvOY0LDFdpa6DZ9rIktAAC0GGfEpcFxY4g9IDoDuQn7faPU0bNBH0KKjN0AktS65SJLxXNHk97SrVJIXR/RJKglb+37qm1nUa4E4mfHitLOOu2433O+ZYl1ZjXJIBsXs3zr+Z8yZUvyxySdoV7Ou+/6US/iS3mLRi5+GSkvyvrP6dYTBZ2v2dW/hjYoGUJpkk1gA3VsWovEqWuNruuRvj85dRqf1Cfu1smEsqDymQz1vJpL6rI0f5lWXu/6tuBUhnIB1wrZ/JYPWrLPAsXH9HWVdAfrw1CWd4Nys5ml/ma8FixChqM3rQl6T4C3HwEAANqA1ld41TKfRvkLtizayuspF2LJVBvVnOXJ2JYe2cC1Qb3babPbWzabPA+9Nkmet0v9q7tqs5pLauiJsSw5z060aa0yZXGrDVON9JHmvKuNcDbtvjVeBmlVHoE3OQTL1L9PNmP9h54Odfv2R2dnvN7I5fq2PqFi37/pC3NdBa/MgmmSjW9v5NVP6tpx8etaP1fXtaQ7FjvBNwKE60NeVVVZFkJvaFBlVkzmAsQKu0z0vE2NleDf9bKS57k/iFU60D6ini0+8q6bSWhlJvCmAw6Bt1vUj/dWi4CcOW/8UOkyz+Tf9A47Kzc16kPBef+pj5y827c0yCRdb1Tz7ucQ3rRWCZvublbAS1w2abnfK5NyGZbXl0UiewI6czR4EqsbAABwQnSUSh8aZKoC4DSRtx2k1dsuIhU28R1+nqH9E18ebn/kdW7p1yP0ptnuKS2BTBLkTSAn5O5y4tRoRwAAcEY5W29pAAC0HKmhv9MSTdI3OGnwzLO1+GmTN/oCAMDpAIUXAHBMZCn+BfVu/7nBm0HBiVJ8TPcPF/3X5wEAQBsBlwYAAAAAANDWwMILAAAAAADaGii8AAAAAACgrYHCCwAAAAAA2hoovAAAAAAAoK2BwgsAAAAAANoaKLztQPExjUac4qaPTA6dTtUGbC3K6Vvtly8AAAAANIezofDKKVnmfHlR4uIetSlopc8NV2m52Lg3sXnHkKpgjwhtcyoo2A2hmXG3NOaY38jjcYNHACeRfwAAAACcIQtv7kLGfCLq/STZ4bDzwx+odNuGpzSe7jBXjoco093bl2nTi/srWjeKeSuQndT5bbcjULOT708+X86kq+FI3D+sU6YvRx38XxA56nWAdvqKWsamloi203R3x1wGAAAAQE1aXOE1lq3VWcrzIC/Wrf49oplVsYQ9ZlXgFCk+pnt7OVqemib/XKIsTTunFAWtv+fKlBS9NG+vB5forSV7f+0anYu6XylJ5t6FCcqbrxXKSmrjDVtLRYGSZ0nZ2ueHfxO0KIqip23i5h71vFnq937jpl3iP++lOb6SaJ5ZLW7O19WKaXbzZe+dp01zVeGWGYdEltLe67R8ONAEueP0Ps/Q/u1pGjTfBNh5SONHc/TdkJnkpcfoux5uA69snQAAAACgJnLSWquHzUdUmv+XfN4ozX+fKy2/Kf9NpeDf29iw/3OuRH9bKu1HXFPhX3Ml+n6utBn420/7/s+jpQ7nfhWf83tJN33P4dEL/kv/3nvem6VSzi0H9bfzLBsivy+Wlv8mcedKS2/ee3/nfi56v9l85N4jZS5lKL8131V6HgdJd4dJc1TcNUOVuL1QI1+2XDYfdThpSS47UUHXyxzHFn39OEFkQGSiGPqOHm0E/xa5CP0OAQEBAQEBoXI4W5vWigXaocuUSbiUrSzCnlVvn7WFZnNAj5/PUq7vum/97Z2mzZ48rbw84Odv0cPtPM1d+QNZ54zU0ANa7pylddeK27lExcl+tcidujRCuaMCFfjz1i8TRH0PjrWkPz9sXTtSNHgxR/l3ErMmOxm0Wg/2EO28lXTXYovW9+Zow6RZ4h67Mkf51+sNtopWRvJlyyX7+R2iw9+cZ+vyPw7iJrLft0tfuL7gAYu6ExrpAmGs092vc7Q/taRk4TdzCQAAAADVaW2F1wzynhuDs9wd14dR+7HasEG927+jq6z0ngTVfY1HKFPDFTl3cdBTiGUpe+W2q4g2kdDSv5R/LNSExHVH4LA6ay6eEmaSIIr7tPF/1Wk77sa4PE38YmJQdePKmQmOe8ux2BugDuX2wHHeGKPUQYHynRn6zFwGAAAAQHVaW+HtnVZK6jyJrywP9sNzyuopA/90r/lNIrS1shGkPrnMylSe1qu8Gkusoj4HVDg0HxXPqBAwNrJidmQ+niZirWQl1d3ot5mozOacTXwmiJJmrp44rBh62x0dxVSstP11KL12o+ILiWeyX3/ZRAuvkjMpU6cMD97uEnVlTq9MAQAAgDPGGXFpcNwYjjPQ79ylgb0Ryl0KxmBfXZZo57tsYurM0/gTdxPTFt1VSo5xE9h+6CtUzuajDqN4zz737z1Yu08zrMxfj6HIZy5w3J6bAD8zvGnt2OR86zOXWZmFN52hXgq5XwjpQRrtnKWBxc363UYqxZ0YLpfVWzRy8ctIedGKZDJETvoPZcI1TUbV1TTTwts7yBO+Wer3lGftDjP/ebbsfQ4AAAAAiKZDHHnN59ZErGcLBfqOlYzM2lXqfnczgSIhO/YHaMb8RXSHNm7PBJUVRikyrNSJVTOZ5VjeDJBmRdb8yfFvcvw2dfKWhm5WTjRipQ6+Skve0tC/Z4tfLKO+y4Kk6d6FIj1VCnIY97kS700qLKzToLn/YO0aP3dFLjrY+PW9hSt+XlU6nXK15aFgJXy5a4JWLrzhtHT7aRG3B89dwc2bxP8pTRyVPKU311ekFfuWgThUiFvSmebyDApsMF9+XchznTQH4hTK66Mqcv+rwca5KXiUp1vRuUj7N8aNsh6U4+RyCgAAAHzctL7CC0AsyhV5AAAAAADhbL2lAQAAAAAAgIRA4QUAAAAAAG0NXBoAAAAAAEBbAwsvAAAAAABoa6DwAgAAAACAtgYKLwAAAAAAaGug8AIAAAAAgLYGCi8AAAAAAGhroPCeMvpY46v0uGi++KiQwyLkSOcz9KIQOXHtB30Udd31JqcH/nCXvGOnwelSoT5s21wu4kU2AABw1jkbCq8oGYt6OJJBaHTtQH2OjRrQfCWlIQNYIE4dRtf2zcWzgBxXe546flxmtTNELaWuEUrfmYTLbHVWHe1bui0hwdHEx8JODMyf4Gwj7efHx+XtDgAAQNM4Mxbe3IWM+UTU+0nKfIqBDC4LeRqd8pWU8XSHuXhccrTsxbtBvdu/S6yMZydPUnEyKIV1nT7rG6EO/i+IKHVEmypPH2i/j2h84S5tmqtK0V/d9fJtr38U1spigXZojgZxdPFHgW2bjesvAAAAnBYtrvCKFfIcdazOUn47rSyK/XtEM6v8XSwLyQE9fi7K2UkolFm63pej/Ot1nS5vmdTkQYKbZr5+VSys6lqUwujcp+51LLG14q4K3/M8Q/u3p+mrMmVXyNI0X8uav1KXcqzW79Jvxiq+9csk5XtueuWZGrpJ8zRL67Gtj26+0jR+RBSwtwesx65VU98XdH+w35k/pb5/9O/t+GHeV9RjsLV4ns5590ZYrg8KlDcfE+Pma2EiFE8o3VzXdq1AL6vrclJyb34jEyuvJCqWWS2k/FiO3NWKsBwF4g6ViVzj3++7smxWYuJysHbViT+Ydsl75fpw5YiDpMNcseUpcenyi7if0+7FHa4Ptzy4fIIyFK/M/HQ7ebL3cH9GRxPU7f3GldOQLCQsTwAAABWQk9ZaPWw+otL8v+TzRmn++1xp+U35byLDm6VS7vu50vLPuRJ9z/qBhL8tlopRv00aVNzBtOz/PMrxL5X2vevyTPsbSbvNhxNMGjfd7ziFy3+jUu5nSan9u6NEjzace2LEXSNIejtseisFL5/v+W+dDv85Op1SrpLWsnvLgp8v9+/5f0nc8jfnw+ZRwr/mOG6/bEQOOh694E/R1/elnt37EwRbFlY2VFwmbv3ZyI8bOC3heCIDl+GoKyuhOt//mWXUkyNdxrmf35i/7XeV6rd6mVUPWm783/v1o8rYq3vz+3Dc6m+5/w7HFPH7GsEt48hrFeqjkhz5sqH/lrTZ34jsuO1H14eRu1B9eCHy+3CZhdtejPqQ7yq0u0A6y/KJgICAgFBvOFub1tSS8mXKxLXWKovcLK3QA7X8XrpdpGX6I326mMTuF5PiY/pmO0/zV8bIdbiYH7bW5SwN9hDtvHUsc5XYeUjjR3P03VDK2GBTNHZtkXJ76+Tae+qKOxEH9PjJhLLo/iG0rGstjysXi7Qvlu13BXOlCpIvWqKfOF/RZGl60tqWmd5BmqddKhjLXParJS6DX+mf+k/aejVLub7rnjVaESqjeGzRQ667uSt/oG7zTWroAS13ast1auiplp/hOb4y57l7lCb79Y9rIFbxUt/fK64ypIamnWspGryYo2fvfjN/16J6mdVG3HKsRV8/29blwctnRH0P/LT1XvfKxCdHS3y/Kon0II125qkQa6lBl/n8sL+a4GOucVuKqg+3fWikfQRlg6Tl9GzQivlN9nOuu8OCssRu/TKh6iMs0/Fxy8xve5rj1McWre+xfHn3c76uzPmrRgAAAOqmtRVes5zquTGopcdZ6ufvYi/bdroKlgwgd3jg+61BA0iexhfM0iOn7ffD/0fTAf/OoL+n+ATKABxrmO3MkO+1HMUx4o7J1mJaKaj7PAC78Upd3LtQVEqfPLPwLh/wsT4O/hK0hAGaMd8rWKHKdd5ipUfUeq0c+EqPKEVPabNHy4fcL5sI408ARihTSQ9vNoEl9HPUvb3C6Y6fcnHFqFhm9WAUQ6lX60qkg3atCNCZo0FPceT2deNDqA1UQE1ec1XKvNo1pmb74Anh567iOU2lG8HJaLMIusYkqA9VJr78qiDuDwAAAI5Nayu8Mkjd3qB5ZVExFjZWYPdZ0Yo1qKYylDsqUAzbY524m9Y+0ExvA9XNcLqP4z9aB6J49ou1KaAkpCjTxf84ljOxAhcOuaqSbCSsgPhzqmea8tR176ItkLOv/smToXWa6Rkssw7qjUb6XtlEeDW20vssZJnk8g8rd01hi+7yZIn69ARCwn7fKE8w4snSwdo1Gti7U6XM6qAr49V5zkmXDbHaXi3SGaoeTdhSHKqPCu2jsSscyREZlvp44ZVX0vpw5d+EE1LUAQCgnTkjLg2OG4MzGNdELbHO0j3vzQkH9Pj5LRq5+GUgDmtVjL/Zp8moZVCdbj2A63SXLd83CU/ZdTavWbKf3yHaG/DLyiwvx3pzgZqA5GndLO8qC3J405pjudtaLLeOpYa+pbm9+zQqmxG/qlYaHE+n+VgTvSw9+9zf+HSwdp9meHJ1vQHKXeZCjp69/tWsKmgFNzx58SYMxjUmaOHVE42ZVxWcNWqUWWz42V+LK8Hn2qIvdZ3f/qZJr52TMs/T+JOozZa6PmYq1YfTPjTSPmZppO9PsdpHeX1MNnYyWas+Qu3Aw/RX/dioBgAADaf1FV61zKc5eLtrPsVFlljF0meXZcXn9D/0dMh6Bp4eYplTy56Om4b/tgZ5U4JOt14aZcWw67ljVT0O/i5wtXRud4vbneas9Nzbkw+hpdXFTa2CidV9eM5/Y4B6hVmUH2YE6TH6Sb3GTN8rbhGbrNh4C+Lyxgdn9/q9C0sR1jFRhp5xmclSuvlK4edLB11mUtdxbKXZyfe00fVH+tTc3719OWTdrp/U0N9piSZNvu5TZsq1+um3e3jlubDHilv56+Kyk3wPTzRs/uxbGtQE4MjGXanMqhF0y+kddiy4qq4v+9dViHqjSH2INX6zy31bgT/ptNei68NvH/o+qeuN2HUt/sBSHzru+/TZ1ItAmXlvjgi0zXhv/BAZlvpIq3sq1EeoHfhxS39VpOVDv54lJH7vOAAAgDI6ZOea+QzAmUB8JO9deNOgCcDHjLxiSxTwE34PNAAAAHDCnK23NACwc1f5SLqb1QAAAAAAqgGFF5wNzBs7OlZ3aXHqL/FcKAAAAAAAGLg0AAAAAACAtgYWXgAAAAAA0NZA4QUAAAAAAG0NFF4AAAAAANDWQOEFAAAAAABtDRReAAAAAADQ1kDhBQAAAAAAbQ0UXgAAAAAA0NZA4QUAAAAAAG0NFF4AAAAAANDWQOEFAAAAAABtDRReAAAAAADQ1kDhBQAAAAAAbQ0UXgAAAAAA0NZA4QUAAAAAAG0NFF4AAAAAANDWQOEFAAAAAABtDRReAAAAAADQ1kDhBQAAAAAAbQ0UXgAAAAAA0NZA4QUAAAAAAG0NFF4AAAAAANDWQOEFAAAAAABtDRReAAAAAADQ1kDhBQAAAAAAbc2ZV3gP1q7RuR/OUYeExS3zbYMoPqarP5zXcf9wlxocu2JrUeK+So+L5gsAAAAAANBQGqfw7tz1FE5R4kbXDtTnuBysXTWKpYR52jTf1yI19IQ+3P5A+32j5psGkh6jp7ffU2lqiXLmq0SwwjzaJEUZAAAAAADEo6EW3tyFjPlE1PtJynyqjSjI3duXaZMV15IKX9GvjbbWtijZScnvUxpLmy8AAAAAAEBDaYDCu0V3xSq7Okv57bSy0PbvEc2s8nc/Pqaadt7iY7q3l6PlqWnKmq9YDaTpSf+voPU3+fJ/8P5zNL9T0hfEKh1Io+QlSfwm7zYsWru0+X5hgvI0S/3eb5y4a7pLhOL+cdlPp7Gmu/kKW9TDeb67Yy54SPz8fC/NAAAAAADtSQMUXlZOb3+gzR6i+WGxVm7QPIkCy59vjFEtO+/ByzzlO3M0WMnCyYrhQ3pgLL/iukA0/iSGIm0QxS9oPf5AM70d5urx2Fpcp0EvXs733hWjWOoy0a4Qc86zHUtuVXeJA3r84wDt9BWVu0bpdpGW6Y/U7Vq99wao+91NHe/wHE82HvpKM5fZ16E8T/eaawAAAAAAHxmN37RWLNAOXaZMo5boWTGcHvLV5tSlHOWOClQwf1dnix5u51kRd63HjSM7GbRKD7LSv/M2ripehZ2HNH40R99xvrVqnqKxa4uU21v3ldrOJdq3VvDeQZ5k7FIhYJmepfUyq66LKOWscE/2m78BAAAAANqT4yu8srz+g+PG4Czjly+j14NYO/2leR1/TJTynaNMfHfiZJi829C/Z1wlGkFnhnyP6ITwJGFleE7Xh6QtjmsJAAAAAECbcnyFt3eaAm4MrGgp62PMZfTUJ5eJjvK0XsFvdmsxTeOk41PL80nemJDOUNNW8uUNDKuzxo1Dh82exrhKKMJW7INCfEVfUPVi0tU1Qd1QegEAAADwkdJAlwbHjaErU9N316P3Oi135kN+uVt01/VX9eI7oMdPElh4lZtBOO4QnmKp/WZn1Oe4ONbjnbs0ELbwKoW7lmtBBMpFYZburR2QjpHT9vwW5fqu1+WakbkQNUXApjUAAAAAfBw0RuFVrgOag7e75lNcUjR2QzZlTVC35x7wC31p/FOzXy1Rbm/AfJ+mwkXXwitK6nl18ET39orayKV+5yjL8tovZeH04nbe0tA7TZs99i0KHPcVsVT7eIdaBN62YN6okB6j70SZXjDxPv+MFsssvFmadl0LnLc0VI1b+dduUO922hyqkabxrue04vgyV0PitnmVoDbtxdhACAAAAADQjnSUSh8a6HgKAAAAAABAa9H4tzQAAAAAAADQQkDhBQAAAAAAbQ0UXgAAAAAA0NZA4QUAAAAAAG0NFF4AAAAAANDWQOEFAAAAAABtDRReAAAAAADQ1kDhBQAAAAAAbQ0U3nag+JhGvVPafLYW5aQ1/3S3j4qdu3Tux8e0b/704O/bukwqyMLB2lU6x9834yBpfWpgnXGr9LKcukeJtxNV6kNOVjz5g73ldMpmlbccV85xc7ureJT7acP1cTWiPo6HPqZ9dK2st2kAzYy7OlpGnZNJE2GOrm+KLDRThv222aY9UjReP7xJrXYSmT45Nqo+RMaS1dPZUHhFSTHCLUrc6FrCJtTEyrSdgg7zH0cjqTCItwySvtVdWrr2B+o2X1VDKYOVlONTH7yNEhEKd+1Z3q2KmliUp1vayMkoeXpQbHw5ndH6qIVSBFlBcfKUuJ9tEsE+1oSo9voRUV4mV2m5eIKqSkv0jSeJ7k/0Uf9+aJl2X6k++PtwmnVoB4U+S9f7dmkgQV9wZiy8uQsZ84mo95OU+VQb1TE8IRrtIeow3zUKUb67ty/T5u0PVFLhK1pvIUtVdlLS9JTG0uaLjwLumJ5MEPU9oD+kK9X4Zco4ZZK6lKPcUZ5+DQ0YW69mKXdxkOJLWzPI0rSSrQ2a57/mh7WsTffqq4nozJDfihpMOO7eadMmirTcye23r2j+nqF+8xNFeoxW5PvJrPmi1Tkj9VEDtz/1GaHlqfemnjaodzudUOk1ZXNjrKFtJjX0VKVpvy/HZbZE++YZcSazJ0mScSkpkXHbspAwfJkmF641VOm15T7TW8/IKbLAstRgWXCJluEGUaFtzg3b9qFDXe3+JOF++INKq/TDHdwPvzFpn+YacvD64f6G60kNoUJ9iIxudE3SN2v7sYyZLa7wGmvK6izlufOVmUn/HtHMKn8XZ3ZZfExfv7upGl3DmwbHfW8vxwOEKzjcyJ2BOzwLD88GtxZdi0pwmd1asvfVcnHE/a4FbWGC8uZrhbLA2njDMzmZqcqzzJJT5G9CVixW4rUwmXvU82ap3/uNm3aJ/7w/qzzpCcDOQxqnJfppKBXdcJUiFm7sg5TrfEYrLw+cRrNF61y/o5dsd61n+H6ZuKsFUi5chm65u/Ips+zALFR+Hy6zSnHHwJ3Fh2XBIB3DhyYpCamhJ3XF7cp/WLGStiPfyW8i5T9cZlz+1nKs70nT+JHpK8xvAs8IWD5CLi7StqT+3PpMUicx6+N0lLYUjd34QCvcPqoj1pMc5V+vazlWZSH9hNNv/LjsyXSgr6vQ5vXSpPkNh3B/5tZHfMVN5OCa6c/s/aH+LFQfK6GaDPbTjpsJ51ms3q7caDexcH+plbvpuhTDWsSMu/c6LXEflnf6MJ1WG0IyrsrN6acDeXLLMlQXtk3wmExHE9Qdcb92cTLfR8mC267Ub/y25bd7/3q5FTWuDNeHbZtJYi+TC092tCImZVI9X6H6CJSb7uvk9/79pl7Mc6rVRy3cNNn0ekhfyGlx24jbHiRfV/kety8P5suVpVD8Sg4knc5vIvQ6GV+q1Uf2q0Xq2P5f+qf5uyql0odSq4fNR1Sa/5d83ijNf58rLb8p/02tIHF0PHrBn6KvJw37P+dK9Lel0n7ENRX+NVei7+dKm4G//bTv/zxa6nDuV/E5v5f00vccTJrl997z3iyVcm45qL+dZ9kQ+X2xtPw3iTtXWnrz3vs793PR+83mI/ceKXMpf/mt+a7S8zgEy7k87mYHeX49z7P1UbTfSX059aPq49GG+b3kq4Of88b8rcvIrz9bZvpeiSsQd0iOK8UdlNVQnDZwXYyquEz9VKmb0wm1ZSCqznR7kO9NOYTak7rulVlU0M8tKy8J4TKLbKtOfYZ/r8JZrY8KISKPgT5O5cPtNyT/HcF+wd4TUS+qfVUqBxV3sD6ifhtIjxd0e/H71pC8heNW+QzXtf+3PKOsH7Bxh+XkFEN5WQT7jfB19Xcgn1wfXE/BPiYcbD8VrGMVpCzK6iIY1JhVJgvhdqPlyPalOp1+/dl8+H3naQXbn0SUhXNd59fKoN+Hq7Jw8hWWperjponbuX/zUUdQn6lZHxKHO2aVB90Ph8YdlU5nfPLak76u27W+z/+9zVc4H6E+w+lTdHxh2YgbdN4q140fztamtWKBdkLL0a0Jz8iez1Ku77pvSeydps2evLEibtHD7TzNXfmDN2tJDT2g5c5ZWndnR51LVDRLDKlLI5Q7KlCBP2/9opfsj+OqMD/8lMbVkn+KBi/mKP9OYtZkJ4NW68Eenui9da2flRCr6BxteMsiPBO/MudbiWoQtLT4oXyGX4kDKhxWWP6rgS5f360h6M6g87XpWe8lX3fo2etfnXy51n6/zGoTJ+7KbP0ySaW+v1dx3zjD9GzQ06FuLUu9gzRPu1RwrVR761x6yTl4mef245RZ7/XytufWp1kBKMSoEGmbbVEfxcf0NfdR81eClhW/30gm46q/G/6LaR9BdH04LkjKWnkrVB/VkXTp/jDYn9m+slJ9SDufH/b7u9TQTZpz3Zu4397vIxr/5bHq093fthIHa3+miaM7dFO1F13ebt1Fji91tp/jcLB2n2Z4XLvuuQJkaXo41N9xu7fWW+1uVqDf1F+nz+yqb8kMWs3F6rxB83v36fGaXmV8YPsui5OvYH8Wc9x07s9+fofo8LdYY8SxEdcZOz5xXzjamQ/2haafVrj5Kq7Tillt1ehVo9lX/wzoEn7bTaJruKQo0xXvvtZWeMWczoLluTE4S+nxlaDTo7riNUKZapeZgP+o8rE5oc7WlLsNUv6xUBMS19WBgyy1xMT6jIVDfD8pnhAcmY9JcdwadAfkuDNUyFdJ/XdMqsQNwvgdrcjKZo9fbrLMFrfECu/ylN/+1FnO1e4PATpzNOhNKGUwa9aSdSvxjMYXzIDOfW3vcLjtzdGg83d28j0PwDGcMljGd6v0d7o+0qH6OAn51xNk1+2l44cBmuEr7tOVsng4QeNdGwn6ohPAWcLu3r5EL3h88P3jc1XHF1km3ui5RV+Y+91l6qbTlfHHtTNG0Ic3vD9GlPfLNL69S8vX4rgrmf4s5rg5/7kz+vNErFkuanGoPtE1+TooUD7gZiFyKg5FbusK9ynaVSVpT5u5kKNn72pPi1pb4eVK1ZtDxNrCAjY8p2cbiZSg5pD65DJ3OHlaD/hFBQkKhe5cfcIWo2Moa41E/Gq4sdnNOBI2edYVnzlnE58JMf2hjm/hzVCm03xMjLYMKUvDzjrNBBQeISpf4w3qcJoZdzsRHMT1pkwJeoOV+JLFVZNG+t6YzRx+aPkNKE3H3bTWwPJIZ4h7y6rIpsbTqg+3r9PBWrE1W4tpWrm4wUrvwMkqhrVwN62FN4M6k0NN+fgiExZd5vVsUDwGh4WAZfLg7b/NpzOOGjuJNkXpXYjzykG3P6t/3DwNqhvznHwFZNSEJmyMk0nzyIXPzF+VOSMuDY4bQxNmh9ZpO5HVWC2D5mn8ietkvUV3lbO5WVbbfugvGclmqqM5+k7NXrTpfva5f2/5Uk9lZDbjL3fwMytsjKkfR2B37pZbeHkA6+UZadmSo1rumKWBOl//dnwLr7+0UQ/WreFrcUcJWNd1vvorbMaJhXFHkYnP4x+1FUlxzLjVzNZbDqxTFqxF/zj5azJbi19ETEIsURMdLQszr8rzlP18jp5t/5kex94YFZ+G1IfazMH1EWdj7plA+rtnNBHoK32kPvLb3zStPoJ95aSzaU330zOrVTb4qP5P+u0sjV1bIlLpNNdiUtf4ciz0+DITe3ypw1CQyqi+sprBJwrtojBBD72yKHfvOzZcZ2q1oM5xqD64X1dvB7pO2V5xX5ylL6o8f2uRxwDbnx1z3FTUWR9JOVj7RukxrlXWJZAvcW/guv666RMp35WxliLd+gqvMvdrDt7umk9x4Q5OBJ+DKG2lvS+8hnB8ZJmzSMvkmux/oUHj6yLK237frr9MsbobeKODzK43uv7oLEldps2YMzq1xOY99z5lpvQrkizebmjHBST2rs30GH3Xw4r8gk5Xx/MMLZdZeGXpZs5ZCrS+TLpMlg6v0Hn1vQ4naRXRg6cz0UiCcWvIH7lvZxBMXR8OeHnS+YppUeQO0F8+TFPhiltfteK2MqyVZFvmdvBMDf2dlmiSPlW/KZeFWCi/KyZkeWkuki+9fC5t076FJSArewPeMnf/4SPa99qH3rUs3+uQVsvNnr+vITspPnV+uXpxy3Kgeo2T648Xd1dzrfp4cPz6UAMg/+tNklodvz66WXmRelNlyhMo2z7C/Z1bZmolr6w+/Hea25UfFbddIg289aQytq+09fHZ1AuuD19KyvppFbd5+4QoTmq1y/py274x/MaD6kifJCT3TawfWf3Y7HJdHtzxRerLfUODbj+ef6mdACsZl/xKvYTe1sBl8ZP4Nttxwms/ftyyfO3KgkJc86aWaMcbOwZop+8/9JdGugtxfzYnddyE/izow2tlWPLMZej4q2a/WqLc3hU65yqxTl/Uf7jk9GcNGDcr1kctgjqSdfUKjG0B1xl5DWvItTLQT7v5kjeM6NUDnSYd6jvIpArFdR6z77ASXluGOmTnmvkMQBugO5+Vi0VWgJL7An2cmA6bB71WeR+uKDnd727SB07Px1iHYhUMDh7gzCIW+0ifaNAcpD/7lCa6ntP7FnmvrBihut99e4beN26Qyc/zTMV+SPKV5ny9P8V+Wl6Jdu/Cf8oMHlGcrbc0AFATni2bpcd/NGGJtN3Q1rPWUnY/aox1DcpuOyCK17kKGwBBM/D7s9ZRdkHzkPoeOFwsfyNGBaDwgvZDls2GL9PEk3/EPnLwY8Xzm4ay2xqojbpcH1B22wBZqk66DwEcB78/g7Lb/oj/92Xa4L4y7gZvuDQAAAAAAIC2BhZeAAAAAADQ1kDhBQAAAAAAbQ0UXgAAAAAA0NZA4QUAAAAAAG0NFF4AAAAAANDWQOFtMvaUoKYeK6mOIo17skpjOJF8VUVOiEl24lEt5AXWdxt9CkwDsWWuQ/Csdnu6XvPqQ79T9PTqOwpzStAZOoJX1eFx0stt/WrMU8YAAAD4nA2FV17Gbo4mlBOIEh255x2TKCF0POIxsWeku6G1FIIo/KMEvWCPfTwziPI1QDt9D2hMzuw2BBVCHewRid5xy14oV5azXy3S7uo1/j6hjKgJhxt3QhmNAz/j622i5Sn9Xs/S7WnqN5dqIm3gmErS1qI+nCLqfaIyUTjX4LZ1fJqpoJ+i8p8eo5tdk/RpQ45HBwCAj4czY+HNXciYT0S9n8R9JTsrd6tEm0pB+ED7fR00ufDXgGXsuOT6ikYB0SGsENgXYbfai8fnh22ai7R8OJBY6T3NfB2s/TlwbnmAng2TLx1W3BNYOpdo314bvlx+Jj4rE0/NgRXJ1dWco4zq88MbqvQeFCjfmaNBR8F3SQ09Uc9uSn2wwty/N0ebZYdT6MnT+oVHNMJ/nfyL3uWsdi7vj+yQhuzkG3XufutPrgEAoHVocYXXWCNXZynPCoRYzvr3iGZW+btYy4IyIE7z/zWpSyOsluzSbydiiXItqWFroliIztO5H5f9PBhLtD+IaSvSORtH2KLjWq4XJihvvk5OisauzBHtrXOKBd965VuwXetdtXwZOG1eujkEFT/3fn0tWW3I6SolWr52TCWn9zotd+Zp5WVIivj7JZqkh8dSJrJ0vS9H+dfrun5lGVq5nEjez+u8B+Q3WCYdLBdha+zB213zKYwTZ7g+rOWZ2w8dTVDae8Y83xUXlofnt3iC5Lcjy9bifcqwkj99qaMOZVfSHUyvu3oj1nr5rK3HOt2ughew5ocma/qeNI0fmb7C/C7JBCS8WjBvXF0kbnV0abW4Q/JfTTG1+bPxq/Lm9mfvjZ6ISpu9QzPPz44rBwAAnDYtrvBqC85mj7VIbtC8taS1vFXHWJ9UmsPIkZMvaO7oj/S1Gih58GelRPJoLXR2Cfm9ikOssFf8QVUUmdVd36I4tcSl0lhkML93QVuvN3vyNPnLllFMq+WLkcGe07Y49V6njcOKZ4mVwXyAdjyruLaE/jWJ3+zOOs1WsXQenxQNXszRzKtkFu/a3KL+H+7TZ1P/p8uOFVCtVIfLhOua/qiWrKVU7KSje5unNHxPt1GERBb8+pCyjqgPOWJZ4hzmCU3nEhVNfZRuz5QprxUprlP+6A4NRliOs5NPAy4ljUYmufcu/Ee1gf2+0YCCZ1cY9nliESY7+Z4+SDl2uisZrhzWQLmPXPZWhiTM9GqVXuJWdVQxbm7Lrwb5+eYal/3MarR/vdTtwOEjeuPEb9u9jlevvkQq6r2DLEN5Wo+acAIAACjjbG1aKxZohy5Tpq5BlhWLJ5OU7/mW/pBu3OKrtTzrUMHiGQkrKlOLRNsP6fHafZrpcf0jt2jdLCHrlGqLjrUYbv0yQRTyX60frWzn+q4HlSBOjx3Es5+zwnT4m6dsVEasgbM00vd3TltEGbPytBJwRdCW0NlX/4xt5T14+2+irkzlyc7egFMfruUsyMHaNzR+NEffRShBqU9+z/ktxMhvBZTClKf5K8FJ2fzwExpX5ZKlQZ7E7bzlJ+w8DKWD6/raIuX2fqV/8l/ZSa04KcXOccmQummcFFdBuVJkyHcoOkFYBp8alxS1OnNUoIK+cgLM0npdVn5u167rhyimtEuFUL+wzspu/+ESvbkx7pwD77d7jV598VYKAnCddOapULeQAgDAx0VrK7xm2d5zY1BL97PUz98l9V8Ty8kEPaI3k/0NVRSCPrwJLV7pMfqpb5fGxZrkDpJKsdf59JQ3WZZuIP5yrLYuhq1f85+7g/Y0fbgx5gzMlWCF5Ih//kkFZUyUJ8dKKUEsl6XY6i4/4Z04b1S5I+TDay1nCufZ3cqCV75Mr0hl6lCu8jS+YPLFctrrWOs1YiX10yKKrFfmp6VQxkBNMOrFulR4IfhmiZZFLOPKMmvSHeFiUg3XDUPa14z53oPlcJz7tNzFweDELVG7T1Gmy0yaAAAA1KS1FV5WtPRSrXFjMEuzYuVKsjlHlg5l082LgDWlBWCFvvt1jjZZ6e0v80meCyypqtBAN466lnprIlYn87ES7sYxGxJMQjIXZAm7zilL4NkVlF2hLqumu2kt4eaxsHItz+d/4k8DmoeydteLdalwyjz2myVOG9X36HRvdv2RPo2p9Irv78DeHXrh5TnC1UTkcGqJKNKdJ267P6DCoZ5cAgAAqM0ZcWlw3BiqLWdHYJVdseZVGmytn2RSq/HxEFeCW2rZOzv0gJZpwvjzMulBGu2cpf5F6zcbRJQ+f5mT4znWprVGov1fZ1crvAlD+R06+ayDY7sbxKCm20QjUUves3TPKxNxC7lFI31/qqyQJ0VZrPP0az2bNeuydsflmbckL4qirOQ0Dm0BbYQvdvkkq0bczmRpazHCwisYK/Ls6jV/Q6jT7msjqyk5ykDfBQCAWLS+wquW+TSVd6pXoPiY7qlBNLRMeBLvsDTuGHpJ0y53Wx9fVlJ/+IJmep4bS6Dx1du2r7KSTW16w8p5J91280rKKMh6eV52ylfYQNYMquZL0vaUin3/pi8i0q38G81GNXtNQiU/20hYQZw7mqT/TXJPIg5o/XU+6NLRVMJlIpuWnnu+qzWRTYLqvuj6UCjXGaKJBfs2hwRvaWAlLNd5y1HIfbw3GfCEa0U9W+KP68fO+R6+47kNdL+7qTanxkM2+pn7ZDOf9ds2G/0s2UluF45Pd+TmrwjCb2jo3r5EL0IuPZXiTg3dVPJp34hx78JS5bbZO81tRV6VeJ7vl/dF++3exuvGHWBnnWaaunkTAADai45S6UOzNAcAmoIcIpF+PUJvYvkVJ0QUyOcZKjbQfeTMI5Mc9T7rKm4g4AQRhf9TKlx5n8x1BgAAPmKg8IIziB7wVy7+h+RgiYZRfExXF/KUm3oS/ZaJjxjlGkQbVCo7fAKcNLIpboCe04fJM+MRDQAAp87Zei0ZAApZ+n1Bvdt/TvAauNps/TJJl4eh7EaRndRL7Sfr5w7K4EnZ/cNF9bYZAAAA8YGFFwAAAAAAtDWw8AIAAAAAgLYGCi8AAAAAAGhroPACAAAAAIC2BgovAAAAAABoa6DwAgAAAACAtgYK70eLnPZ2njp+XKZ450+dIbzT4CRc9Y9uZewpWs18vZZ6RqzjYU8OeY/uuVBZtDKqDH98TPvm78QUH9Mo3992sg0AAKAuzobCKwqMUSBk4I57RKg+oMA/ojOs/BwLGVC9eHWQ40FdwkeUygBuUy4vj9dHwtpwN/Zxr2Xxxj7O9ZSJLLODwHGwx4cV+dVZmh/+QKXbEp7SeNz36sopa8dRsgSOo3v7Mm1GHNAgJ8RJnbfWu2x1G2lWmpK11waSHqPvuiaou8UmHgAAAE6HM2PhzV3ImE9EvZ/EPfRVDiiwig+H4cs0ufBX2jRXj0+OlqdM3FNL1OEehGAVH/tsCeHjanteeNf2+3apP4HSS51LtG/j5XyNLyRVerM0ffs9p2n8hI/Qdcrs9gb1bqfpKk8UGqb0Fgu0Q3M0WOHI1dTQU/Xs5hzJapXt8BG8olSep6/p/+OUnc6hFtnJD/QhifLfBuCwDAAAAJYWV3hl2f0cdbASkWfFSCyC/XtEM6v8XT3LlakMq1vUHJUjPUi5zmdUMInaejXLCu1gSPGpTGroJs3TLK3XMzj3XqflzjytvDTWUrGIS/m4FlXH0hWwEC9Gq/9hK/L8jqOSSvzeteNYl7N0vS9Hz17/qutSpVeUflPvEkL1HLSMRzz7oEB58zGIE2f4Pn7uVXHvYDkrHU1Q2vtdggkIc7B2n2Z6NsqU6YO1P1Phyv/RylCP+SYJku5geq3V1Nb1Oa7bfae+AhbVgFV9PjDZk3g6fkjT+JFpU879cScgIifuSoWVEys/0l5t21WB5c2P260TuVa5tKXe5Te+8hpaveF7y9PME94rczTzHK4NAADwsdPiCq9YIT/QJusJeol6g5VCYyEMW0tjcPDyGeVZCf1v83dDKa5T/uiOZ1nMfj5HtDdQdRBvKqy4dS8U6DuxpE4tUW7vvqc0WSvnft8oK//l6r8oK2Hr9Eyv+Z0oUKu7vpVWWZeTKYbVmaX+H+5TRsXP9c35eGiUHEnXgByratK039fhPdtT0Flp1XFYRcgqWFqWtAyFSI/RU7F2D89RR+cSFU38pdthS201Dmj9dZ7mPy+/IzX0hJXgJlpWWc7S777VaeY85Lcf+vXBeVuR71kGwrUtVt/S7SJPlmz70mFlKBVvUsiy8DXLyYa5T4KVEytj0nZzfUXvemmy34t7a3GdBu33Ui+cjyhrrCi7A4eP1IqGnUxsLbKi3rVh7tWW3MiVgt5BlqE8rdc9KQMAANAOnK1Na2q5+jJl0ubvWPhWpO7tEi1+9d/xBvNY5FnhMorVwgT9fvgvvoLUO+0N4up6DWvh1uIAzbCydb2OpfaDtW9o/GiOvgsoKjIxMApbepBGO/Oe9bk6W/RwmxW3smV5jUwaqO8Bjdk6UNblOi3TSmHK09yVP1C3+UqYH35q4s/SICtMO28l4Tpd7m9TQ3/3nm0VLFH4iOZ8Zd1RsJpLgQpHOcqcrH+IRpR0zqdCFDzapcKJKXhS/uW21ThkJ10Zc+vaZ90ou28CrjdbtL7Hdez5SWtLrrdSECBDmdiyDwAAoF1pbYXXLJ17bgysVOaN9S6+X5617Em4Sb8t/BffW98AXU7QH7Vj9b9CG3T8Z2/2SLpDS+l7XxhlmPN4uET7SazWYsE192prbEhB7czRoDcx0L7MsfxW1aSisuJWeJenZ+4StVkSj09wktA7LOlyVdKg/61YIcXiqDklhTIOqtzqJOB2ICHoetCyiPWYJxizq9rdQN74kWjDX8A1RrfzACzjE3slGrk4GGwXqqwdK74EcUeJcGoQ2c90lSvSAAAAPi5aW+G1VlKrWIr1zmzWqm/TUbQVqTFof9T8u4L5O0h2UvIRsjQ5m9YSu2i4m9YSLb3XIJ2hWkU70vfGT7cJ8evDnSQkrcewpU6squbjaROj3Cpi3Q68MEPGXtv6cBv9YNK92fVH+jTua+5Yyb+6eivgSiHuDwHEcq02g/6O/lo2SXWs+DbcGA+sFGgOqHDIyYy90RUAAEA7ckZcGhw3hq5MMsXQhQfZ+3sjNHopGIPevHPcVzMZV4AIH07FzjrNtLKF0kMmBXkafxK90Sf7+R165r6N4sTQk5XZ5/5rww7W/qduN5BIZFPjUZ5+revVdc1cOvfjFV/lMkvosdAW0JlXx/fCzlwo3xIq3+Vfr1dQgkf89rBzNzpf4l89fIdmV6/5MqdcdGapP5Z//Cm6mgAAAGgZWl/hdZaKD97umk9xCe0CX8jTyNQTGmvYq5mc5fkfBmin7z/GYhl+/y8HtdHL+qaeJn7aurdXqGR9jB3lQdwINuUdpk76vbc0iEVPbVTzryV9m0G9SLo2xIpontu9fYk241rGveXzAZ542HoLuZiwcvWgr4MmFswSfaJ8pWjwYi76jQDyJgXv2SXvjQjxJlhZmh6e8+7pfnez3BJaBW8z38IErXhuAPOBfKnVB8/XPP5bGry4TZD6eBGqj9TQA1omR5bsJkIu65s9z3w5ep6h5Ur5Ypkrqg2K9g0U4qKjN6q5z5f3YJelWyaaAfceAAAAHyMdpdKHesxZAIAyZII1QKT8ks1X4BSRyV2aCldQHwAA8LEDhReARiKW5FUq30QIThxxVeqnDSpFnHoHAADg4+JsvZYMgFand1qfmnda718GmuJjuidvPoGyCwAAgIGFFwAAAAAAtDWw8AIAAAAAgLYGCi8AAAAAAGhroPACAAAAAIC2BgovAAAAAABoa6DwAgAAAACAtgYKbztQfEyjEaeC6SOTQ6eJgTOOPikvfErbwdo1ddrY8Y7Hbj22Fs/TOZbh5bqOe24QclLej/6R1meGyHSb0yf5+6acgn1qtGu+AACN4mwovPIyf/NeU1Hi9PGiCbHHu9qjTRtE8HjV4JGtbUsFBbsRhI+rdQcwuaaP6LXhIynv04Tr+mrTjo6OVt5bC07j81s0d+UP1G2+AdHU3TcDAMAJcGYsvLkLGfOJqPcT97T+OPDsf3WX5npy/LlDf9UApIPv3r5Mm7c/UEmFr2i9hQ4cyE5Kmp7SWNp80erwpCRYnhxujFGgtns26IO5ttlzm/ph0VGkhp6oMmm3I3Szk++5vp/SeLpx7TYRxXXK0yL9qfeUnt9wsjQd1a7OPO2aLwBAo2hxhdcsU63OUn47rax6/XtEM6tBy18tthYHaKbnJv3pQgPVXTnJaS9Hy1PuEbLc6TonO4WtlWFLlizX+teDrgfWWrK/ds2zagbuF6u3vXdhggdlB2WVs3GHrXNiVZNnSdna38zTprmqMeVuAyvx2ipu7lHPm6V+7zdu2iV+WYa29wZjrsbWq1us0A7GPpI3c0EmMCeIW+YcRtf2/dUCZfX2r9kVCYu4HLjWabcubV27Fuz5HXcdwq2PNI0fma8Vbj2Wu69InBK3PKN23By8dPt1vVKxrnX8fr7CclQZ7aqg86Las4nDsxAGyjMcryvD9jd3q8twnROjrV8mqHTxy4RKVKgNhNqg1IWXrjJ3jWrp1vHe5frz+47y+vDu5X6z5KxnBa6VTczluZxOt9zDZRaSfytHNl7pm20/rYLXbwhGnsy12JZgeWZE3Sm5M/Fbdx77zAByP3+378iptFuXQLlwCLYPAEDbICettXrYfESl+X/J543S/Pe50vKb8t9UDP+aK9H3c6VN/rz/82ip49EGf4r4XcKw/3OuRH9bKu1HXFPBea7/t592lRbnfhWf83vJM33P4dEL/kv/3nvem6VSzi0H9bfzLBsivy+Wlv8mcedKS2/em787Srmf33i/2Xzk3iNlLuUvvzXfVXoeB0l3h0mzH3ex7HeRQZWR5Hkj8rqUkV9/Ou5Kv214CNVfMNgyCv7t5Zvv7eDykpTbv924/LrWebOyUVS/1/Xll6H+23+WDdFtQ8uVvt+N28pddF3790tdj1aoa50PP1/huGuHSnlxQuTz9X3hMvTlTv5OIHeVQhU5rxy0XLppcUO431Bl5pVhdF37Mm7iVvWp26uSHXvd1IeXXpE7T478oNJQ1m6k7rk9fX/H3B8h0+49YZnmIGmJLnOdbr+PiZCzSqFCHQT7Av+7snypMpEyMvVh0u3FV1cdIyAgnMVwtjatFQu0Q5cpE3uJ/oAeP5+l+WHXCnsS6Ofm+q77z+2dps2ePK28PODed4sebueVX6C1HKWGHtBy5yytu1bcziUqTvYrq3Tq0gjljgpU4M9idaK+B8dyVZgftsvEKRq8mKNn737TF5jsZNBqPdhDtPNW0l2LLVrfm6MNk2aJe+zKHcq/Xi+z0ETCZVS6vUHzewPG2hLhO8rXtKUmTSsX/0Mlx6JejYAVyAnx/EdtfUaX+cHafZrhurruuRNkaXp4zuRb7r1FI31/ipQFD75/n/Pi1rWqkZ2HNE5L9NPQMRZqezZohe8Py5FQf11zbb/Sbavf/J0a+pbmjvK0HrIyNwuRYVsf2c/niA5/C8hZbLmrwMHLPOV7Bum/zd+x4PqaOLpDL7w24KLb/fwVf9k9NfR3Wuq8Rb+KVVHq+miOvvPqmtvPtSXK7a0H20HPC3o6pD2Kdb4LRs6O29eNOCtWvixogqtX1DtIc7RLv8XZTGjcQh6YNEtc1/tyNPOqrHWXk86Q16wca2/hXZ5GLnymv6+F04/adBcCMhrqdwEAbUlrK7xmCc1zY3CW0uMoKgdr39B418ap+TVW9zUeoUwNHSZ3cdAbGCk9Riu3T0hxDy1dSvnHQk1I3OVvDquz5mJcjC+e8tGVuELL9MaHd79vlJ69/jW2QmN9XMMhnmywgnhUoz67Mn5dRSD3litAPuG6ftrqdc0lXzgMuiN0/DBAM+bqqRBQ5N/QMk1Qt0lbvImNiyinRMtf6UlIXA7e7rKClSF/x0GYXPV2X/VezdznTppkknhCfqtBVwxd17EW/w8KlD+aoLR3r+x9CDhhVYHLo1MrqFuveJLT5ddxrTYVC+lXeXLqyTEr1GfubRwAgFi0tsJrLX48SCxPsYLCHZOyhMVSVA5o/TV3qp61UDrZFSopC2G5r2NSUp9c5gG2ujXLt44IWkHweUaFgLamlapTR3z4WEmdH/aVws0ecy0Wc8FNZxLqHJCzk1L3+VA5abQ1cZIexlRkjmfhlUHXfKyEsrL5KMXHIWg1DcvCKXHsuhYrq1PPKpziJsmAspiisRsmTVNLtMMKTSKld2edZjpzNJgwL6pfqEpYnkPt3lHaFaIsmo+nifi59u+5bVvaZoI9EWJl9e41IdbqTIoyXVJmW7R+mKHrnxOt70j7qTFxSIIaZ3SaNrsm6NMfl6H0AtCGnBGXBseNoYYlzccZ8EwQq2CHshAGB2VruUg0IPZep+XOPI0/cTdUbNFdtWlCuwnktx/6S5HOcmUH6eXC2ef+veXL4pWRzVr+ci0/M7xp7dg4g8nO3XKrn1pmjFgGTA/SaOcsDTTq1W+idFS0iJllUacMq3E8C6+uz5nV6NdzpS7lKHc04Sjf7tK1cRnZ/t9IWahJKsNx+xOrrcXwprXjUruuL9OtiCVfv0zib0sMI8oMxVvargq3AVbcRyptLnOXxWNh3AMc14PYyJI5T8S+cTc0euh278rswdr/0GyneQsE3zvP7eqet6ErwjWqIqGy5MnM1dVbnIaGtESNM6HYWvyCUxq08Ab7JQenTOrmLU8DZBWE28POq4c8SZAx4dj23TL0RtjGxwsAOH1aX+FVy+SasNXsdBGFuhhYNu344RcaNFaL1NBTVrB3/eX91d3AGx3kdUsbXX/07lWv44ppCVX+vt5z71NmSltbLN4bAQJvU4hW1spIj9F3PazIL+h0dTzP0HKZ1U/7qPrL2dZirstk6fAKnVff6xBvRzYP7j/6u7hVUGVW2WIoVt55VjS/jrvj+xiU1ScH7y0NsixqrIj62gDt9BU9ZVqU7WLfv+kLe29IFqrCcf/UR1593LtQDFphWUnVPs2yxGzrLeYKRuy6vhNR136ZePmS8ONyucJTBWXFd1ZhrKx4O+cDb4kIyrCfJl3e4teqVZXgGwHC9VGT4jqt8IRkMJmWbBCXnBfUu/07760AbrrlVYFiRfTb/SV6we3eeOTyvRt8r33TAU9uurT/dRwCZbmwR99OLfJ0xipv0r7sM52Vr/BbDSqQGrqp2ppN970Lj2iOv3dVw2C/pOPWCrFfJup7E+IaGEQJneE0Zy5xOcik+nCWZlj51h68fr9RT77Cb2iQftivDwBAO9EhO9fMZwAAOAOIkpOmwpXmvHdYVnxkYhFX0QQAAND6nK23NAAAQJMRKyyUXQAAaC+g8AIAAAAAgLYGLg0AAAAAAKCtgYUXAAAAAAC0NVB4AQAAAABAWwOFFwAAAAAAtDVQeAEAAAAAQFsDhRcAAAAAALQ1UHjbgeJjGo04SU0fmRzz1C3gICd1nWS5yfNinoQH2gs5Ke/HxxQ8dFfkgdsuf9/8MwRBLLie/BPZQn2DHOMsJ/st1n/INgCg+ZwNhVc6G3NUpChx8Y6q1Wilzw1XabnYuDexBY+mnKePosuroGAfm8CgousqrHR6xyaXXfePTnWDd/xvbCSeL2in74FzpLFRQNzAg1sgXlUm7m/8tAXTHLymydJ1Oba4TPEBoLEk7T/jEdU+Qr2DVQq937jtI3i8r1yL30fLs0NHksc8Vjg+/IzVWZof/kCl2xIqH3deRrP6SgBAYs6MhTd3IWM+EfV+kuwUJL+j0p3VeNo9Ab5+ZPCQs9c3vbi/ol8b3tnWj5wYlahzbgU6l2jflOd+H9H4gj9YyMCYfj1Cb7zrHc71FI3dkO+LtNzJ8tJXpA/8m5Wh7sB5/7U4WPszTdAi/RRx0pYvRxs0v3eF/rpjB2UeEBcmqDckZ4Fy53wV7bXhy5zuoNKbGnpKm10T9E1iBR20H1maFjm5McZSfXYIto8BurtjLqj2MUmXh//PXJdQvX1MLlwLTQqr4z+b2//hQGOV3mKBdmiOBisdY50eo6e331Npst98AQBoRVpc4TWWA55d57fTavbev0c0s8rfnfZyH8/c7+3laHlqmocnCw9Uk/5fYcuFPwBothbPV7BWamVaLDH7jnVw3lOwGNcayspW3nytCFhTwtYFsWDKs1zLSNgybcrdBh489JPNPep5s9Tv/cZNu8Tv5OsYy3ypTy6bT8IWPdwmWrr2B+o236SG/s7K7Syth8q1fuQZJfWM6opGlgZ7uAreHuhy2VmnmWoDYpje65zuPK28DEpw9qsl6tj+X/qn+ftkKK9rja7HoIVcW9FdC6HIuC/DQTmyMuy2g4AMV3y2Ru4PWsbdZ+u0uPe6MdcmJKehdiLP9uIOWxzD1nw33artSVxO+wr1VYF+gfu2klvC7rVQeejy4rjV82PE7aTbfi/9p+1LVQg8w0kzh/otweXtY5bu0Je9Maee3D6WOp+VtY948MT3yhzR3rquT1VW4fpYDpRZ1boWDgrB/tXB7cOlrfgY2Y7oKxu5wggAiE+LK7za0rHJnaeewW/QPImSyZ9P2fpx8DJP+c4cDVaynrJCGrD+Ds+xou4u412jgcNFx1oZtGYKMjCl3/0/eq+uj9Kt5//QHbV04qu7uhzk/qklLhUHa3EIf++R52fdp8+mxOIiFtHbdN/prLcW12nQpMtaa7Q1U+rDxjvnWLZ9a83WYpomup6rNGtry5W6B86tV7NEnRlStn1lZblMmYB1PkWZLp4AvQorBnUiAzPX6Zc1VwC2aH1vhEYvpbT1uHeQ5VIGtWD9JSY9SLnOW6zAn9yAGFXXemKWosGLOXr2+ldHOShQ4Sin8q0wMv7C3L/f95K+CClgIsPd726a6zklw1bSKj+b4bj79+ZM3CKjXNI9G7RiLO8iZ+NdG+ZebdW7Gts6Lsrup46cSvAnrqIc9h+6Kw0dNLnwV6PMsyITsObrdAdl/BbLgm1ffP1ogh46+Qr3Cx3OGoRY+vUzo1uuinthj25KOwzHzf3CQ3qg41VxcLqf6PK28UpfKqsf9jclb4IuZSKuPP8x1zaol+suPEmPh7QPLSe2fcxxugd4QtSglpoQaZtuffzRK7Pyuiavrj1XJJ6U6DiM0upMErKT79VK0mZPuM8wVvqIvrJRK4wAgGScrU1rntJj/o6Jsgibziq5T2c98ODxfJYHluveIEq909wpaqteibv9h9t5mrviWisflFsrZZlvsl8NGqlLI5Q7YoWDP2/9MkEU8DFNzvyw7XiNYvPuN32ByU4GrdYBa01VZKCbow2TZol77Modyr9eDyhBVeEBvNvUVT+xQmMnNmJlYeX3M/Ujn8yFSopBcg7e/puoK6OfF4EvRwOsGPyd/uANXHZi5g+K1RSFg7VvaPxojr4rc5vQCny8staU+wfXfr5LtbpODX1Lc0d5+tVapMSS3XPTn9zwhGR+eJrrSWN/v+4uRYuLilGqUpdySoatpFV6tqAmOz2D5rqWUTosGDnScrbpKWvaqhdUzquw85Amju7QC09OXXTbnL/iT6hlJWGJJyK/8kTkYO1/aIbzdN2z5nPds9IalvH54Semfbn50v2ClJmf76SMqFUlXebBMpOJ7rQjU7bP8Ft2FYrrPA1epAdDtkcSv/JcoslksH24/ZOeKG/23I7ZPv6s6qe8fcSBJySsoAb6Xia6PqLq+oFX16mhJ0qZlUkJuUqrs4oHADg7tLbCa5btPTcGZ3ko/oBuZ9YSxGrxO2UJOgmq+xqPUKZGf567OOh1xNpqe5yBMgGm3G2Q8o+FmpA4lhAJyjqSAFGQ7CBjlyWFVCZy8C68ywf8u4+DxEVVVE3XT3D09e/ofGjjmidrypofWhJmRT5tykRb+KLrUhR4d/JRC29QDoXpuO4VVetalAN/aVkpuJ/bVB9Q4TA4mRRFZ8ZctVSV4SrPVhMZr/4PaP0117ONq4Kcua4B1Th4u+uvHESSq942q0yKNHdo0Fm+F7mwlunmIlZap0y4v1yJWyoyoXRkVEI3K4NJCLaPdJmbiVhD1fWa7eMSvUjY1wWV7WKovMXdyK2P9871GnUNAGgbWlvh7Z3mDnLDd2MQJcgoRLEH9AB6dt8IlH9p2JoVwrO8KLSC4POMCu5ltVxsPp4myl3C3ZGsl0Hj4y7fmVCP+4nyc52le3ZQTGeol3apEPB/02WadBNjJbS1uNzmV462XNPhb5yCCJQ1nyj/TuzxBrHWe2VSeTAXpXvkQtiOXZljWXhj1HX28zvGcqqtqmE/ZfdeHWJukuRnX129VfHZ2n97lgZUftI0To9CGwmj5GzcWzGpRtA3PIp89bbpWZo1SoFuAZSbB/nL87KcPsryHEeiFQEZNaEua6bxow2Vk0fN9jHjrRrExZWjZJOLGnUNAGgbzohLg+PGUNO6UoWduzSwN0I564NosJsW4lqNFWbj0fgT12dxi+4q/y69BJvffuhbKHceesvYHUbxnn3uv4bqYO1+aKm0MqKY+Uuo2qcwmS2mFo7Vg8uszMKrlM+IzWLpQRplJXUg/MquutCDpl+GUmZ5muDy9svsz2qAj1NmcUh98vvKg3QAWZq+RSMXv6wgi6Iccikmtjz7CnxcJeXYFt5adS3+l+JKs7NOO4FlYi3jM6t3j/EqPmeVI/Bsu/Tv5ImVWa+sjZz1l23qionK02SFN2LotjnDbdPKgbgxzHYu0p96O4ybgOM3y3UdXhavTMjn3Cj9cS3TsfD6Ry7DJ5PcLwRjD/YdDk6ZHB9dfwHrfoB620ejiarr+15dN4RKfSUA4MRpfYVXLV9qkltSzE5ZG1ZL9KJhmwZYIbtRpGXyfU47fviFvrT+ikNPaV/ereo9WzaZ+ZY9WVbb6PojfWquq2XumJZQ5e/rPfc+ZabECu7jWf0CO4RjbqhKj9F3rFiOL+h0dTzP0LJjedNov0V/GdFuxtNlsnR4hc6r73Woe7e3sfJaxUaWhgNl9vr/o32vzOxybponFnqzlJRBIp9tM+j/b4VNY35+ZcPUc3pqXnkW3BkvIWpZNQbiR3kUXA5vKjHr+nrfv6mf5dfbrGawMv6Fm/fQDviK8LNv9jyr8Gw92Qm6S3DwNsSZtievn3Kux69r8Sl9odybfOu43z5EzuQVcbZdqyV2ljNlPeZ0r0wt0U5oCT3uBCM7yW11z6R7oUDfTi3ylMPWt5Vh405gfxdTsZe3fOTsPSyjexcf8ZQiaOEN9h1u3H6Z6Pt1SGIECLYPvcFQt4/wKkSd7aMJlNf1Zb+uayLji37zQ/9eifucT9XnYH9X3lfiLQ0AnA4dpdIHtD4ADDI4y7t+i/W4YRwTWWm4d+GNp0h/vIjil6bCFddSrb9budgaihIAAICzxdl6SwMATUbtyKdJ+rpeq3Sd2NcjyS75j1vZFSL8KIvrtMLfNcpfGwAAwMcFLLwAlCFLleIqclKn1Mnz5J20yXamtzXyBofQGz7Ep7e+zaoAAAA+dqDwAgAAAACAtgYuDQAAAAAAoK2BwgsAAAAAANoaKLwAAAAAAKCtgcILAAAAAADaGii8AAAAAACgrYHCC5qAOYHox2XvGOBGsrV4ns6dwROL7IlTiY6wPvOY0w69U9KagxzakehUPQ850OL8R1YnFZCjjptcT+AsoU/+807JW6z/EPEyRNZkjGjIMfQgCbqvDLVyro9RU8ftXB9nQ+GVd3KaIzAjK6sWtjJVaLCiJGn7CAQFgHZka/FTmuh6HvF+X3vMr9tfVFKO5Xt9vLYcIBI8Rtceu60pP4Z6nmKrEVZJcO4P94XSP7rX/X7JTDwC10JHFstxz12T1B3zKGNwHGLUR1l9+7JULkeNNwAcrH1D47REb25/oJKEyX5zBYC46H60VQwKZ8bCm7uQMZ8SnrYkCulCnkanTKO9/ZTG0407y2rr1SzND8v5+L/SP813QM7lf0+lG+Mxz6RPRnbyPX1ocD2eBKmhJ5zuj+3wBJEFbnencFRzTbhvGNi7Qy+iBnI52Y0H+80+ovzLg8BkdudtjQl35xIVrZIwfJnGF4JKL/VsmL7oA2323KYvEq2EjNDyFLctuX9qiWj7m4ASJKf17dtnS+C8ua1EDu/Q14q0fDhQpmRlJ9+o72HxPhn8+pAxxC13VogXJuny8P+Z6xJCB+GwnHl1zXI2uXCtoUpv4V2echcHm9NueXL1VMaIkHyCU4LrY0XkqM3ro8UVXjMLXp2l/HZazWT794hmVvm7WEtvPLt4vssDRLNOzNqi9b0cZVJZGuy5Res7riUobH3xv/N+ZZa49Qz9LsfmYy3Z+85v5r34GWtZNiE8QMmyv3tdgp8enRZ3qSpWN6ksDsF0KiQtpj4CFq6yeKU++X7X4s73eYO9xMMDsGu9CJRhwOIRtoxJnkSxcC0nwd+UW0U4xLJm1Ypbl6fUgW9hc5Ucuc+mO6T8WEL1GVyed58bKpNa2Lpxy47rxadW3JI3V5aC9R+o72rlHSpnJfuhNqx+73wXjjsUgypzG7/0C8ng+5/fornhv1CU3ergZZ7yXRnKXspRx+tfTZpSlOlSH0JEHIVs6b1Oy515WmGlOYrMhRz/v84hJj1Ioxx3QUV9QOuvkygoKRq7Mke0tx4qV/39zPM4/WsDYTn169rt67R8Bvs3+539TVAWArKm+hqRWacN8gTDzVuwXwhbSoPtw/4mum0nbJsBZAzhYrCTqZ11mqU79GVvTNlgOVvqfFY2OatMMN3l4+kBFQ7NxwTIuFPuWuT3j4K7ChH+rdSFlKH7m2DdV++PqlJhfAk+/1qFuG0eSiqPWlYr9OUVCclSoMxr1Ic7Zkpwx1anj/d+E+hvdZnZ9hXuK6vVR6UycwnqMX6Z6HjTNM59o9LZvPudZ0j8Efc2ixZXeLV1aJM7Aj0T5lkw5ViB5c9xLEbq/P3LRC+dDq2RfqXcKc105miQlWkZuGZf/dNUZIoGL+Yo/3rdEVoZFHM0eimlhzeu6PT27+mFmaHv9+1Sf0jIRclPv/t/9F5dH6Vbz/9hrnPjeDVoZv0chnmAWnUaJ8ctlqtNdb3IAy5/17NBK0O6xLYWWQi7NlS82tJzha6yENYknaHLtEuFKlaE1NBTZcWU9HZEDuSz1L9QoO/Us7k+jybof11Ffm+Aut/d9PKV337o58taBaaWKDr2PI0vyJHANt+36b5tXNwZfL1NWnY4bpEpZSGZjHuYrxu3scyFFHpp1PcuFM11/v0vNuXG4q3kNwJp9KsyMdNxS1gZ6jb5k85qgHb6dLwSRy/LRXiCUxUu424u829t2e39j+lYasUt1/WSv01XyT3+mNPdvX3ZkeGX9IUjwyIL+ntR6oKkLo1Q7ihP604HF7AoRcTttg8rwzZdqj6TwH1D/ugODUYqFFp5nP+ccyoyz+n8tUzmpWzcDvoyZRJPqvVzqOuz2n1ZFKp/m+M8yB+mz+H6Cw/iiekd5HYZrJvmovsz6TdUfXK7v7X6V9PutSI488oZwIsF2iHJt647cUvxZUFbroODMvc5P9ynz6bEWip9zh/poZVx7hce0gNzr8gZ0eSTf3hjxNbiFzRjLfLcdkSS54etAUVk4AtuP/8xaa+jbXpo44mMDwquAy4FGiib2DeCcLq5zIj7CKUkWaVMKyoiT1a5i2M9lnHw2bvfzF/RZCd1WW/2RLU9/Uzbj0rfIZMvWx8Ha3/m/uiFrg8VEh7H7o4vZoXkHzZfZkzW46Y8u3xMnl09z2n7jxo7N3ueOX18LaRc3b6Wg6fD2H44qj4EvndhgnoDqwF6zPZqxPTxalwVOd277yieug/X4315X+nXh/kiTLUxWbWfv3ttV9rP+BNdZjpeGYfdlQxnbBMF3R331GpYgglMHZytTWuqo0swsBwUWE2ZpRWvQxNB+iN9GteiWQNxZ7ADtBrA99Y9t4bU0M3goCHKcc9Nz9K89SpoXSr7vSBLo2aJQSsIrDSrC6xAuYqaDFBKEdV/StzU86XpCPRASIcF03ClY52jTb5fdzdi0blDzzwrVjUylOk0nZSaTWrhPHi7y4N2xjTeWsiExXZSvlXDqw9XCQ3lKw7+YKTzbTvfg5fPKG8mJ0L28znuJGx5xsOPW+6/w2X6W7DMnEmFit8r82pwZ/ec5ajvQfQqhFla/8nEK2V2XQYBVgDiy7AucyVr6UHKdT7TVsFace88pAlWCiOX/BntzmPiZVJD39JcXEVJ/EV5wPAtn1ouv7OTsoi4vfbBsnfPyHDdSN/QmaHPzJ8BAoqkyKhOp5SJDOj5dyw16jeVLbcW5QfJcdl8KXgA0RPwNK1c5MEz0TIiD7ILxhKkBkF/wFcTDDWIGyWl6uSeB9FVkbvr3v0+0s6t5TgOVkkKBVYW4hkXyvuzOafdZ7+SAdy3RIv1nTjd/63+Ernhyb13v7ZQB40N0nafGBeokCWV5XDaqZvUpZzqZ3WvIXHzvTLxEZRF3bmXZSBPi/TAm5z67ScuvuVLFB63D9CTZDWxNuVZTZFWiiC31ZteWqpg2rX/Wy6za7aMtZHJKio5VtC0MhPPhSz1ye/NJy49Ze2VstLGnozTBKri9KPB+jCUrUokwB1fAisknF4zJnuSFDUm97ygp6bc9BgQp4+X+vkfmuFn+32tA9eH9BHR9SH33lf3Xvdc4biOhsNjtjOuuvnivvI+t4+N47gqVBuTK7SfOOOqbseOzKvVsFlar2vCGI/WVnh5xiUdt+fGwB28KLD9NRp/gICQaeWuTFGpi9CMXCkSrluDdKz+gKgGcNtx8tNluUhmi/4AMUAz5qolsDyprJv+4OYuQ4TvVcuke7+aTiG01KkmDboMvft54CvFUp9kSVc3pIOXBerlgcMKvutj3YqojtjpvKQ+qGfQK8+6CDVsv36Z3umYfqsyGPDPK/mli2Ims3envrq3uaNIgqPoqzZw4732I64R98Hbf/O9rPyYv4NoGXaXqqJkuBoyYHiKiZoQ2vo4fty1UHmrgHJncGRD0lk2IeSy6x3eoF5Jv7Qpt5y4TNMm3WKl3gxboYzFUKxX8SaaLo4P7+0NIi6jgDWT+wnli2cn9yELYVDBKnqKRRDtulHTV9nDKkmhwPIf14df+jN/WTRU12oAtwOh9Gfkr5Rx2e/SrbL+LIhvDRZkD4Cfb7GuOffyGLPi9Yai+HOZWQVWTXKcPt+0H1vXEpK2TdenevR1OrQUrdOqFE61iheqa6ftdm9fohcsZ9FT0wgqtutjkspQTimBPD7SHeqVyaGinhWQcmQfxEaPX99BS359aINLvDF5jvt4T5Ji9/F69aqqUahWfdQyKJX18Se1V0Taj+8uoXW0eEiZWFdVHfSqQjNpbYWXBeqDmO+tGwM3ejXb4A4gVmVK40toxYuNDNBqmdutrFLA8iZWPj2ga+uVthj5zA3bgcuGeL7G4k/TLxYu777gUrmeZVulltMVsOIJ7r0m3BiP1XBFmd59+0816Ax+laECK/QiuIk2Ep4GIgtOfanyO46FUGjIoKEH1aoYmQ/UF6e97hm7S5W4XWtNJdylKh0S+MuLtcBMQoITQs2x4q5B5bwZNwPPCstBJoQqnSXvvq1XLP+9PKnlCeB6eMzlMvU2rVVZchUL0tzRZNClJxHaoqgszmWIlWiRZf7f9JuzFB1cWqzUZvXgH79NH8/Ca/sz674S7s8kL7JaoxRPtSrhDu6Cdd9yQkxFRLnGcP/otYEp113K+GxbWeDBPGCREgJ1bUJd/YoYY6qsCvFYKEvOgboOtN2Z+MquEB4XRXk3H4+FcgEq0G88Pu5cuE6DrPZuhSeEx0QmATrP2oXkuEqvyLntS+sdk2uhjFDVqFUfIbmoNmE/SZS7BD3y3+Qh7hTmWhxkBSFY3s1V1M+IS4MzO4y9dM4Yy8A9r0HI8vEtGrn4ZSAOay1N4nullvGtb5cNrJB3eJZVRg3oLMjS+ANLh7oDn139a/3+WU4HsrXozkR1HgMN1+38TZn0LyZZEg/DeeoapCx3bvT6Ia0fJliuOiW2fpnkwcptXJUVkdrIcnC5HNWHGcxdH2wXJUMT9HUDLBll1Iqbr4tC9k2kf7ef7vp9DPUqSOGAJ4SH7pJdjbhZ7np5QmeXvrTCpD/HxkyGy70NWbaPzATbkxVZ3nU2BB3ep3uHuv1lLhCtvKp3Sq0V1tnnvs9oMrbo4bbxNY5AufFw3/lZ4reZ6DKI36aPb+EN9mdfcO0GUUulPOhvveTJ9ZVgfyYra9Kf1Y03pnDf+UQsVMbCa5aDXWU6MElw2kf9falF+m3fRa4c7V7RkJU0STfd8vc32GdHurfUR+GttsJnLuzS+i+svCUZt2MTw1hQBetupDcG+mPyMSSpItrlscLbT6QfZomvVB/aTWDC9zs37X7uyh9qty+178ZfeZYNZsk3+NagrP246Emjawi0KIOg85aZk6D1FV61BK9RSmYixLSvZ4Ha6qB95qwPTv04m1pcTEfyq+PWcF0c31d3/WUwgyzNFPv+7flnWYtIHLVG+xb5y1n3Liw5FhGxFNwJLc24cUuZ8AB+OEDnneuyczIOYuHKb08QqbyLhWuWZo7shIQF/ke9NNm9vUIlbuBqqeM4g5GDKDYqPrXsaC3Y8Zzcs18tKt/GQJkk2eHLBJeDE8iRcc3RS2TWyuxveBLfS7VBwkmbv5NVlAlXhnWob2NMmFpxy/UXfP13znW/zGy6gzJsd8BrWZDv1DKvtZKF/OfFP3NnlcszNNBHx21lmNNllnhV/O9uKveARG3aKEr3wsqKrNwElgcFPRh67gdHnB/Pd1/ch2brHtC133MSpcnx4TVuCdoiUm5lTbzMbYksg+Zh+zPrGnDvwiPuR0Okx+i7rgnq374cWimT/ky/Ss3Ne1yrn/YP9n2qCxeXaIQlSckSP/Oms3xeHrffPrwlXQ5J2qbfp6TVxjurUHt9nRd0XVe2yichnO7gs4+HKKG3aOL1Z/Qly4+0jx1uH76i7stp/16Jx5JPVRrijT/SpzjL5/Wk2xk3rbuRv09Aj8mB+o45JtdEXI2mpK+Litv2wxXqo+xekYX/0F8iN9yGkb7S1we63/0/1Vf6uPUhGwb9+ojTH8m4mtu74qVb2k/YwpudlE12Rhdw4xaXELVRzeZLQrIxOSkdpdKHeP0sOCNIp/ApFa78Hw+EtkHId6LsN6rDPHvIBop7F94E8i+W/X7aiLEEqcuvcOVje4dumyMTkVWqTylsWyDrHsXHdHWhQDfd1SDZrKve69449xpwQnB773ieof2Y7i6g/Thbb2kAMZDlSPPRojZb8ISq1f1sm4b2SQzSwCVCcDbpnVYbYOT1ckBjX/GFiR0T4deqNjQ2aAMWAOBkgYW3HVGWq9nAkoRsVvmoBzFlmQn6F4nDfDyLN6xe7YtdETFvrjg1ZGnxC5qptJDYs0EfGrVRsRJi0XxC9AAWMA9ZGZKldx/Z8Hsc/39wasDC+9EDhRcAAAAAALQ1cGkAAAAAAABtDRReAAAAAADQ1kDhBQAAAAAAbQ0UXgAAAAAA0NZA4QUAAAAAAG0NFF4AAAAAANDWQOEFAAAAAABtDRReAAAAAADQ1kDhBQAAAAAAbQ0UXgAAAAAA0NZA4QUAAAAAAG0NFF4AAAAAANDWQOEFAAAAAABtDRReAAAAAADQ1kDhBQAAAAAAbQzR/w/lcs/D4zTbNgAAAABJRU5ErkJggg==;" vertex="1" parent="1">
          <mxGeometry x="-500" y="230" width="581.86" height="330" as="geometry" />
        </mxCell>
      </root>
    </mxGraphModel>
  </diagram>
  <diagram id="C5RBs43oDa-KdzZeNtuy" name="Main">
    <mxGraphModel dx="1434" dy="1933" grid="1" gridSize="10" guides="1" tooltips="1" connect="1" arrows="1" fold="1" page="1" pageScale="1" pageWidth="827" pageHeight="1169" math="0" shadow="0">
      <root>
        <mxCell id="WIyWlLk6GJQsqaUBKTNV-0" />
        <mxCell id="WIyWlLk6GJQsqaUBKTNV-1" parent="WIyWlLk6GJQsqaUBKTNV-0" />
        <mxCell id="T1U7n8v8P9vPTdrv3HzN-35" style="edgeStyle=orthogonalEdgeStyle;rounded=0;orthogonalLoop=1;jettySize=auto;html=1;entryX=0.5;entryY=0;entryDx=0;entryDy=0;fontColor=#FF3333;exitX=0.5;exitY=1;exitDx=0;exitDy=0;" parent="WIyWlLk6GJQsqaUBKTNV-1" source="zkfFHV4jXpPFQw0GAbJ--17" target="paqMSd8MrO6RcLGc8y_I-6" edge="1">
          <mxGeometry relative="1" as="geometry">
            <mxPoint x="692.0799999999999" y="1313.0120000000002" as="sourcePoint" />
          </mxGeometry>
        </mxCell>
        <mxCell id="T1U7n8v8P9vPTdrv3HzN-1" value="" style="swimlane;startSize=0;labelBackgroundColor=none;fontColor=#FF3333;" parent="WIyWlLk6GJQsqaUBKTNV-1" vertex="1">
          <mxGeometry x="100" y="-160" width="440" height="1020" as="geometry" />
        </mxCell>
        <mxCell id="T1U7n8v8P9vPTdrv3HzN-2" value="Tipper Ratings" style="text;html=1;strokeColor=none;fillColor=none;align=center;verticalAlign=middle;whiteSpace=wrap;rounded=0;labelBackgroundColor=none;fontColor=#FF3333;" parent="T1U7n8v8P9vPTdrv3HzN-1" vertex="1">
          <mxGeometry x="20" y="10" width="60" height="30" as="geometry" />
        </mxCell>
        <mxCell id="zkfFHV4jXpPFQw0GAbJ--6" value="Consolidated Data" style="swimlane;fontStyle=0;align=center;verticalAlign=top;childLayout=stackLayout;horizontal=1;startSize=26;horizontalStack=0;resizeParent=1;resizeLast=0;collapsible=1;marginBottom=0;rounded=0;shadow=0;strokeWidth=1;" parent="T1U7n8v8P9vPTdrv3HzN-1" vertex="1">
          <mxGeometry x="40" y="60" width="160" height="350" as="geometry">
            <mxRectangle x="130" y="380" width="160" height="26" as="alternateBounds" />
          </mxGeometry>
        </mxCell>
        <mxCell id="zkfFHV4jXpPFQw0GAbJ--7" value="MarketId&#xa;RunnerId&#xa;StartDate&#xa;TipCreated&#xa;Date&#xa;RaceNo&#xa;HorseNo&#xa;TipsterId&#xa;Source&#xa;Tipper&#xa;ExpertTipper&#xa;Country&#xa;Venue&#xa;VenueId&#xa;OpenPrice&#xa;FixedPrice&#xa;BSP&#xa;PlacedResult&#xa;Win&#xa;Position&#xa;RecoUnits&#xa;PriceIndex" style="text;align=left;verticalAlign=top;spacingLeft=4;spacingRight=4;overflow=hidden;rotatable=0;points=[[0,0.5],[1,0.5]];portConstraint=eastwest;spacingTop=0;spacing=2;spacingBottom=4;" parent="zkfFHV4jXpPFQw0GAbJ--6" vertex="1">
          <mxGeometry y="26" width="160" height="314" as="geometry" />
        </mxCell>
        <mxCell id="zkfFHV4jXpPFQw0GAbJ--9" value="" style="line;html=1;strokeWidth=1;align=left;verticalAlign=middle;spacingTop=-1;spacingLeft=3;spacingRight=3;rotatable=0;labelPosition=right;points=[];portConstraint=eastwest;" parent="zkfFHV4jXpPFQw0GAbJ--6" vertex="1">
          <mxGeometry y="340" width="160" height="6" as="geometry" />
        </mxCell>
        <mxCell id="T1U7n8v8P9vPTdrv3HzN-32" style="edgeStyle=orthogonalEdgeStyle;rounded=0;orthogonalLoop=1;jettySize=auto;html=1;entryX=0.5;entryY=0;entryDx=0;entryDy=0;fontColor=#FF3333;" parent="T1U7n8v8P9vPTdrv3HzN-1" source="zkfFHV4jXpPFQw0GAbJ--0" target="T1U7n8v8P9vPTdrv3HzN-6" edge="1">
          <mxGeometry relative="1" as="geometry">
            <Array as="points">
              <mxPoint x="225" y="1080" />
              <mxPoint x="340" y="1080" />
            </Array>
          </mxGeometry>
        </mxCell>
        <mxCell id="zkfFHV4jXpPFQw0GAbJ--0" value="Tipper Ratings" style="swimlane;fontStyle=2;align=center;verticalAlign=top;childLayout=stackLayout;horizontal=1;startSize=26;horizontalStack=0;resizeParent=1;resizeLast=0;collapsible=1;marginBottom=0;rounded=0;shadow=0;strokeWidth=1;" parent="T1U7n8v8P9vPTdrv3HzN-1" vertex="1">
          <mxGeometry x="145" y="710" width="160" height="230" as="geometry">
            <mxRectangle x="230" y="140" width="160" height="26" as="alternateBounds" />
          </mxGeometry>
        </mxCell>
        <mxCell id="zkfFHV4jXpPFQw0GAbJ--1" value="VenueId&#xa;TipsterId&#xa;PriceIndex&#xa;Position&#xa;ExpertTipper&#xa;Tipper&#xa;lastTipped&#xa;coordinateTips&#xa;correctTips&#xa;SR&#xa;ROI_BSP&#xa;AWPR_BSP&#xa;RankDate" style="text;align=left;verticalAlign=top;spacingLeft=4;spacingRight=4;overflow=hidden;rotatable=0;points=[[0,0.5],[1,0.5]];portConstraint=eastwest;" parent="zkfFHV4jXpPFQw0GAbJ--0" vertex="1">
          <mxGeometry y="26" width="160" height="194" as="geometry" />
        </mxCell>
        <mxCell id="zkfFHV4jXpPFQw0GAbJ--4" value="" style="line;html=1;strokeWidth=1;align=left;verticalAlign=middle;spacingTop=-1;spacingLeft=3;spacingRight=3;rotatable=0;labelPosition=right;points=[];portConstraint=eastwest;" parent="zkfFHV4jXpPFQw0GAbJ--0" vertex="1">
          <mxGeometry y="220" width="160" height="8" as="geometry" />
        </mxCell>
        <mxCell id="paqMSd8MrO6RcLGc8y_I-12" style="edgeStyle=orthogonalEdgeStyle;rounded=0;orthogonalLoop=1;jettySize=auto;html=1;fontColor=#FF3333;" parent="T1U7n8v8P9vPTdrv3HzN-1" source="zkfFHV4jXpPFQw0GAbJ--6" target="zkfFHV4jXpPFQw0GAbJ--0" edge="1">
          <mxGeometry relative="1" as="geometry">
            <Array as="points">
              <mxPoint x="120" y="460" />
              <mxPoint x="225" y="460" />
            </Array>
          </mxGeometry>
        </mxCell>
        <mxCell id="T1U7n8v8P9vPTdrv3HzN-30" value="" style="swimlane;startSize=0;labelBackgroundColor=none;fontColor=#FF3333;" parent="T1U7n8v8P9vPTdrv3HzN-1" vertex="1">
          <mxGeometry x="70" y="570" width="660" height="1904" as="geometry" />
        </mxCell>
        <mxCell id="T1U7n8v8P9vPTdrv3HzN-31" value="Tipper Raceday" style="text;html=1;strokeColor=none;fillColor=none;align=center;verticalAlign=middle;whiteSpace=wrap;rounded=0;labelBackgroundColor=none;fontColor=#FF3333;" parent="T1U7n8v8P9vPTdrv3HzN-30" vertex="1">
          <mxGeometry x="30" y="20" width="60" height="30" as="geometry" />
        </mxCell>
        <mxCell id="T1U7n8v8P9vPTdrv3HzN-6" value="Data Merge" style="swimlane;fontStyle=2;align=center;verticalAlign=top;childLayout=stackLayout;horizontal=1;startSize=26;horizontalStack=0;resizeParent=1;resizeLast=0;collapsible=1;marginBottom=0;rounded=0;shadow=0;strokeWidth=1;" parent="T1U7n8v8P9vPTdrv3HzN-30" vertex="1">
          <mxGeometry x="190" y="570" width="160" height="170" as="geometry">
            <mxRectangle x="230" y="140" width="160" height="26" as="alternateBounds" />
          </mxGeometry>
        </mxCell>
        <mxCell id="T1U7n8v8P9vPTdrv3HzN-7" value="Tipper Ratings.*&#xa;Raceday Query.*" style="text;align=left;verticalAlign=top;spacingLeft=4;spacingRight=4;overflow=hidden;rotatable=0;points=[[0,0.5],[1,0.5]];portConstraint=eastwest;" parent="T1U7n8v8P9vPTdrv3HzN-6" vertex="1">
          <mxGeometry y="26" width="160" height="44" as="geometry" />
        </mxCell>
        <mxCell id="T1U7n8v8P9vPTdrv3HzN-8" value="" style="line;html=1;strokeWidth=1;align=left;verticalAlign=middle;spacingTop=-1;spacingLeft=3;spacingRight=3;rotatable=0;labelPosition=right;points=[];portConstraint=eastwest;" parent="T1U7n8v8P9vPTdrv3HzN-6" vertex="1">
          <mxGeometry y="70" width="160" height="8" as="geometry" />
        </mxCell>
        <mxCell id="T1U7n8v8P9vPTdrv3HzN-9" value="group by:&#xa;VenueId&#xa;TipsterId&#xa;PriceIndex&#xa;Position&#xa;ExpertTipper&#xa;" style="text;align=left;verticalAlign=top;spacingLeft=4;spacingRight=4;overflow=hidden;rotatable=0;points=[[0,0.5],[1,0.5]];portConstraint=eastwest;" parent="T1U7n8v8P9vPTdrv3HzN-6" vertex="1">
          <mxGeometry y="78" width="160" height="92" as="geometry" />
        </mxCell>
        <mxCell id="paqMSd8MrO6RcLGc8y_I-6" value="Selection &amp; Staking" style="swimlane;fontStyle=2;align=center;verticalAlign=top;childLayout=stackLayout;horizontal=1;startSize=26;horizontalStack=0;resizeParent=1;resizeLast=0;collapsible=1;marginBottom=0;rounded=0;shadow=0;strokeWidth=1;" parent="T1U7n8v8P9vPTdrv3HzN-30" vertex="1">
          <mxGeometry x="190" y="960" width="160" height="900" as="geometry">
            <mxRectangle x="230" y="140" width="160" height="26" as="alternateBounds" />
          </mxGeometry>
        </mxCell>
        <mxCell id="paqMSd8MrO6RcLGc8y_I-7" value="MarketId&#xa;RunnerId&#xa;Date&#xa;StartDate&#xa;Day&#xa;Country&#xa;Venue&#xa;VenueId&#xa;State&#xa;RaceNo&#xa;HorseNo&#xa;HorseName&#xa;IsScratched&#xa;Result&#xa;Win&#xa;FixedPrice&#xa;Updated&#xa;PriceIndex&#xa;FixedPrice_Open&#xa;FixedPrice_11am&#xa;Stake_11am&#xa;Tipper&#xa;TipperId&#xa;Position&#xa;Expert&#xa;Tips&#xa;SR&#xa;ROI_BSP&#xa;BetUnits&#xa;Status&#xa;Version&#xa;MinsToJump&#xa;PriceUpdateToJump&#xa;FlagPriceUpdate&#xa;PriceIndex_Open&#xa;ExpertIndex&#xa;ROI_Min_Expert&#xa;Units_Expert&#xa;Tipper_Top&#xa;TipperId_Top&#xa;Tips_Top&#xa;Position_Top&#xa;SR_Top&#xa;ROI_BSP_Top&#xa;BetUnits_Top&#xa;ROI_Expert&#xa;MRank&#xa;MRank_Open&#xa;FavePrice&#xa;PriceIndex_Fave&#xa;FieldSize&#xa;BetType&#xa;ROI_Min&#xa;ROI_Max&#xa;BackBet&#xa;LayBet&#xa;Bet&#xa;Selection&#xa;SelectionTotal&#xa;Units&#xa;Final_Stake" style="text;align=left;verticalAlign=top;spacingLeft=4;spacingRight=4;overflow=hidden;rotatable=0;points=[[0,0.5],[1,0.5]];portConstraint=eastwest;" parent="paqMSd8MrO6RcLGc8y_I-6" vertex="1">
          <mxGeometry y="26" width="160" height="864" as="geometry" />
        </mxCell>
        <mxCell id="paqMSd8MrO6RcLGc8y_I-8" value="" style="line;html=1;strokeWidth=1;align=left;verticalAlign=middle;spacingTop=-1;spacingLeft=3;spacingRight=3;rotatable=0;labelPosition=right;points=[];portConstraint=eastwest;" parent="paqMSd8MrO6RcLGc8y_I-6" vertex="1">
          <mxGeometry y="890" width="160" height="8" as="geometry" />
        </mxCell>
        <mxCell id="T1U7n8v8P9vPTdrv3HzN-34" style="edgeStyle=orthogonalEdgeStyle;rounded=0;orthogonalLoop=1;jettySize=auto;html=1;entryX=0.5;entryY=0;entryDx=0;entryDy=0;fontColor=#FF3333;" parent="T1U7n8v8P9vPTdrv3HzN-30" source="T1U7n8v8P9vPTdrv3HzN-6" target="paqMSd8MrO6RcLGc8y_I-6" edge="1">
          <mxGeometry relative="1" as="geometry" />
        </mxCell>
        <mxCell id="zkfFHV4jXpPFQw0GAbJ--13" value="Today&#39;s Race/Tip data" style="swimlane;fontStyle=0;align=center;verticalAlign=top;childLayout=stackLayout;horizontal=1;startSize=26;horizontalStack=0;resizeParent=1;resizeLast=0;collapsible=1;marginBottom=0;rounded=0;shadow=0;strokeWidth=1;" parent="T1U7n8v8P9vPTdrv3HzN-1" vertex="1">
          <mxGeometry x="250" y="162" width="160" height="248" as="geometry">
            <mxRectangle x="340" y="380" width="170" height="26" as="alternateBounds" />
          </mxGeometry>
        </mxCell>
        <mxCell id="zkfFHV4jXpPFQw0GAbJ--14" value="MarketId&#xa;RunnerId&#xa;Date&#xa;Venue&#xa;VenueId&#xa;State&#xa;Metro&#xa;RaceNo&#xa;HorseNo&#xa;HorseName&#xa;FixedPrice&#xa;IsScratched&#xa;DaysSinceLastRace&#xa;Distance&#xa;rn" style="text;align=left;verticalAlign=top;spacingLeft=4;spacingRight=4;overflow=hidden;rotatable=0;points=[[0,0.5],[1,0.5]];portConstraint=eastwest;" parent="zkfFHV4jXpPFQw0GAbJ--13" vertex="1">
          <mxGeometry y="26" width="160" height="214" as="geometry" />
        </mxCell>
        <mxCell id="zkfFHV4jXpPFQw0GAbJ--15" value="" style="line;html=1;strokeWidth=1;align=left;verticalAlign=middle;spacingTop=-1;spacingLeft=3;spacingRight=3;rotatable=0;labelPosition=right;points=[];portConstraint=eastwest;" parent="zkfFHV4jXpPFQw0GAbJ--13" vertex="1">
          <mxGeometry y="240" width="160" height="8" as="geometry" />
        </mxCell>
        <mxCell id="paqMSd8MrO6RcLGc8y_I-11" style="edgeStyle=orthogonalEdgeStyle;rounded=0;orthogonalLoop=1;jettySize=auto;html=1;entryX=0.5;entryY=0;entryDx=0;entryDy=0;fontColor=#FF3333;" parent="T1U7n8v8P9vPTdrv3HzN-1" source="zkfFHV4jXpPFQw0GAbJ--13" target="zkfFHV4jXpPFQw0GAbJ--0" edge="1">
          <mxGeometry relative="1" as="geometry">
            <Array as="points">
              <mxPoint x="340" y="460" />
              <mxPoint x="225" y="460" />
            </Array>
          </mxGeometry>
        </mxCell>
        <mxCell id="zkfFHV4jXpPFQw0GAbJ--17" value="Staking Table" style="swimlane;fontStyle=0;align=center;verticalAlign=top;childLayout=stackLayout;horizontal=1;startSize=26;horizontalStack=0;resizeParent=1;resizeLast=0;collapsible=1;marginBottom=0;rounded=0;shadow=0;strokeWidth=1;" parent="WIyWlLk6GJQsqaUBKTNV-1" vertex="1">
          <mxGeometry x="610" y="980" width="160" height="310" as="geometry">
            <mxRectangle x="550" y="140" width="160" height="26" as="alternateBounds" />
          </mxGeometry>
        </mxCell>
        <mxCell id="zkfFHV4jXpPFQw0GAbJ--18" value="Country&#xa;BetType&#xa;PriceIndex_Fave&#xa;PriceIndex_Open&#xa;PriceIndex&#xa;MRank&#xa;Position&#xa;SelectionTotal&#xa;Tips&#xa;SR&#xa;Profit&#xa;ROI_FP&#xa;ROI_BSP&#xa;ROI_Min&#xa;ROI_Max&#xa;AWPR_FP&#xa;AWPR_BSP&#xa;Units&#xa;TestDays" style="text;align=left;verticalAlign=top;spacingLeft=4;spacingRight=4;overflow=hidden;rotatable=0;points=[[0,0.5],[1,0.5]];portConstraint=eastwest;" parent="zkfFHV4jXpPFQw0GAbJ--17" vertex="1">
          <mxGeometry y="26" width="160" height="274" as="geometry" />
        </mxCell>
        <mxCell id="zkfFHV4jXpPFQw0GAbJ--23" value="" style="line;html=1;strokeWidth=1;align=left;verticalAlign=middle;spacingTop=-1;spacingLeft=3;spacingRight=3;rotatable=0;labelPosition=right;points=[];portConstraint=eastwest;" parent="zkfFHV4jXpPFQw0GAbJ--17" vertex="1">
          <mxGeometry y="300" width="160" height="8" as="geometry" />
        </mxCell>
        <mxCell id="T1U7n8v8P9vPTdrv3HzN-33" style="edgeStyle=orthogonalEdgeStyle;rounded=0;orthogonalLoop=1;jettySize=auto;html=1;entryX=0.5;entryY=0;entryDx=0;entryDy=0;fontColor=#FF3333;" parent="WIyWlLk6GJQsqaUBKTNV-1" source="T1U7n8v8P9vPTdrv3HzN-3" target="T1U7n8v8P9vPTdrv3HzN-6" edge="1">
          <mxGeometry relative="1" as="geometry">
            <Array as="points">
              <mxPoint x="680" y="920" />
              <mxPoint x="440" y="920" />
            </Array>
          </mxGeometry>
        </mxCell>
        <mxCell id="T1U7n8v8P9vPTdrv3HzN-3" value="Raceday Query" style="swimlane;fontStyle=0;align=center;verticalAlign=top;childLayout=stackLayout;horizontal=1;startSize=26;horizontalStack=0;resizeParent=1;resizeLast=0;collapsible=1;marginBottom=0;rounded=0;shadow=0;strokeWidth=1;" parent="WIyWlLk6GJQsqaUBKTNV-1" vertex="1">
          <mxGeometry x="600" y="440" width="160" height="434" as="geometry">
            <mxRectangle x="340" y="380" width="170" height="26" as="alternateBounds" />
          </mxGeometry>
        </mxCell>
        <mxCell id="T1U7n8v8P9vPTdrv3HzN-4" value="Venue&#xa;RaceNo&#xa;HorseNo&#xa;HorseName&#xa;StartDate&#xa;Updated&#xa;MarketId&#xa;RunnerId&#xa;FixedPrice_11am&#xa;Stake_11am&#xa;Date&#xa;Day&#xa;State&#xa;Country&#xa;VenueId&#xa;Result&#xa;Win&#xa;FixedPrice_Open&#xa;FixedPrice&#xa;priceNumber&#xa;IsScratched&#xa;TipsterId&#xa;Source&#xa;Tipster&#xa;PriceIndex&#xa;Position&#xa;ExpertTipper&#xa;Units" style="text;align=left;verticalAlign=top;spacingLeft=4;spacingRight=4;overflow=hidden;rotatable=0;points=[[0,0.5],[1,0.5]];portConstraint=eastwest;" parent="T1U7n8v8P9vPTdrv3HzN-3" vertex="1">
          <mxGeometry y="26" width="160" height="400" as="geometry" />
        </mxCell>
        <mxCell id="T1U7n8v8P9vPTdrv3HzN-5" value="" style="line;html=1;strokeWidth=1;align=left;verticalAlign=middle;spacingTop=-1;spacingLeft=3;spacingRight=3;rotatable=0;labelPosition=right;points=[];portConstraint=eastwest;" parent="T1U7n8v8P9vPTdrv3HzN-3" vertex="1">
          <mxGeometry y="426" width="160" height="8" as="geometry" />
        </mxCell>
      </root>
    </mxGraphModel>
  </diagram>
  <diagram id="AU8ZEz0rWzLzrskJj6YP" name="Tipper_Ratings">
    <mxGraphModel dx="1422" dy="1874" grid="1" gridSize="10" guides="1" tooltips="1" connect="1" arrows="1" fold="1" page="1" pageScale="1" pageWidth="827" pageHeight="1169" math="0" shadow="0">
      <root>
        <mxCell id="0" />
        <mxCell id="1" parent="0" />
        <mxCell id="18xm9mBscc4XQ-Tnb01c-1" value="Tipper Ratings" style="swimlane;fontStyle=2;align=center;verticalAlign=top;childLayout=stackLayout;horizontal=1;startSize=26;horizontalStack=0;resizeParent=1;resizeLast=0;collapsible=1;marginBottom=0;rounded=0;shadow=0;strokeWidth=1;" vertex="1" parent="1">
          <mxGeometry x="254" y="360" width="160" height="254" as="geometry">
            <mxRectangle x="230" y="140" width="160" height="26" as="alternateBounds" />
          </mxGeometry>
        </mxCell>
        <mxCell id="18xm9mBscc4XQ-Tnb01c-2" value="VenueId&#xa;TipsterId&#xa;PriceIndex&#xa;Position&#xa;ExpertTipper&#xa;Tipper&#xa;lastTipped&#xa;coordinateTips&#xa;correctTips&#xa;SR&#xa;ROI_BSP&#xa;AWPR_BSP&#xa;RankDate" style="text;align=left;verticalAlign=top;spacingLeft=4;spacingRight=4;overflow=hidden;rotatable=0;points=[[0,0.5],[1,0.5]];portConstraint=eastwest;" vertex="1" parent="18xm9mBscc4XQ-Tnb01c-1">
          <mxGeometry y="26" width="160" height="194" as="geometry" />
        </mxCell>
        <mxCell id="18xm9mBscc4XQ-Tnb01c-3" value="" style="line;html=1;strokeWidth=1;align=left;verticalAlign=middle;spacingTop=-1;spacingLeft=3;spacingRight=3;rotatable=0;labelPosition=right;points=[];portConstraint=eastwest;" vertex="1" parent="18xm9mBscc4XQ-Tnb01c-1">
          <mxGeometry y="220" width="160" height="8" as="geometry" />
        </mxCell>
        <mxCell id="18xm9mBscc4XQ-Tnb01c-4" value="PH" style="text;align=left;verticalAlign=top;spacingLeft=4;spacingRight=4;overflow=hidden;rotatable=0;points=[[0,0.5],[1,0.5]];portConstraint=eastwest;" vertex="1" parent="18xm9mBscc4XQ-Tnb01c-1">
          <mxGeometry y="228" width="160" height="26" as="geometry" />
        </mxCell>
        <mxCell id="18xm9mBscc4XQ-Tnb01c-5" style="edgeStyle=orthogonalEdgeStyle;rounded=0;orthogonalLoop=1;jettySize=auto;html=1;fontColor=#FF3333;" edge="1" parent="1" source="18xm9mBscc4XQ-Tnb01c-6" target="18xm9mBscc4XQ-Tnb01c-1">
          <mxGeometry relative="1" as="geometry" />
        </mxCell>
        <mxCell id="18xm9mBscc4XQ-Tnb01c-6" value="Consolidated Data" style="swimlane;fontStyle=0;align=center;verticalAlign=top;childLayout=stackLayout;horizontal=1;startSize=26;horizontalStack=0;resizeParent=1;resizeLast=0;collapsible=1;marginBottom=0;rounded=0;shadow=0;strokeWidth=1;" vertex="1" parent="1">
          <mxGeometry x="140" y="-20" width="160" height="260" as="geometry">
            <mxRectangle x="130" y="380" width="160" height="26" as="alternateBounds" />
          </mxGeometry>
        </mxCell>
        <mxCell id="18xm9mBscc4XQ-Tnb01c-7" value="MarketId&#xa;Date&#xa;TipsterId&#xa;Source&#xa;Tipper&#xa;ExpertTipper&#xa;Country&#xa;Venue&#xa;VenueId&#xa;OpenPrice&#xa;FixedPrice&#xa;BSP&#xa;Win&#xa;Position&#xa;PriceIndex" style="text;align=left;verticalAlign=top;spacingLeft=4;spacingRight=4;overflow=hidden;rotatable=0;points=[[0,0.5],[1,0.5]];portConstraint=eastwest;spacingTop=0;spacing=2;spacingBottom=4;" vertex="1" parent="18xm9mBscc4XQ-Tnb01c-6">
          <mxGeometry y="26" width="160" height="224" as="geometry" />
        </mxCell>
        <mxCell id="18xm9mBscc4XQ-Tnb01c-8" value="" style="line;html=1;strokeWidth=1;align=left;verticalAlign=middle;spacingTop=-1;spacingLeft=3;spacingRight=3;rotatable=0;labelPosition=right;points=[];portConstraint=eastwest;" vertex="1" parent="18xm9mBscc4XQ-Tnb01c-6">
          <mxGeometry y="250" width="160" height="8" as="geometry" />
        </mxCell>
        <mxCell id="18xm9mBscc4XQ-Tnb01c-9" style="edgeStyle=orthogonalEdgeStyle;rounded=0;orthogonalLoop=1;jettySize=auto;html=1;entryX=0.5;entryY=0;entryDx=0;entryDy=0;fontColor=#FF3333;" edge="1" parent="1" source="18xm9mBscc4XQ-Tnb01c-10" target="18xm9mBscc4XQ-Tnb01c-1">
          <mxGeometry relative="1" as="geometry" />
        </mxCell>
        <mxCell id="18xm9mBscc4XQ-Tnb01c-10" value="Today&#39;s Race/Tip data" style="swimlane;fontStyle=0;align=center;verticalAlign=top;childLayout=stackLayout;horizontal=1;startSize=26;horizontalStack=0;resizeParent=1;resizeLast=0;collapsible=1;marginBottom=0;rounded=0;shadow=0;strokeWidth=1;" vertex="1" parent="1">
          <mxGeometry x="348" y="-10" width="160" height="142" as="geometry">
            <mxRectangle x="340" y="380" width="170" height="26" as="alternateBounds" />
          </mxGeometry>
        </mxCell>
        <mxCell id="18xm9mBscc4XQ-Tnb01c-11" value="Date&#xa;VenueId&#xa;PriceIndex" style="text;align=left;verticalAlign=top;spacingLeft=4;spacingRight=4;overflow=hidden;rotatable=0;points=[[0,0.5],[1,0.5]];portConstraint=eastwest;" vertex="1" parent="18xm9mBscc4XQ-Tnb01c-10">
          <mxGeometry y="26" width="160" height="50" as="geometry" />
        </mxCell>
        <mxCell id="18xm9mBscc4XQ-Tnb01c-12" value="" style="line;html=1;strokeWidth=1;align=left;verticalAlign=middle;spacingTop=-1;spacingLeft=3;spacingRight=3;rotatable=0;labelPosition=right;points=[];portConstraint=eastwest;" vertex="1" parent="18xm9mBscc4XQ-Tnb01c-10">
          <mxGeometry y="76" width="160" height="8" as="geometry" />
        </mxCell>
        <mxCell id="icXEm4vAi2SMkkXStXrS-4" value="IsScratched = 0" style="text;align=left;verticalAlign=top;spacingLeft=4;spacingRight=4;overflow=hidden;rotatable=0;points=[[0,0.5],[1,0.5]];portConstraint=eastwest;" vertex="1" parent="18xm9mBscc4XQ-Tnb01c-10">
          <mxGeometry y="84" width="160" height="50" as="geometry" />
        </mxCell>
      </root>
    </mxGraphModel>
  </diagram>
  <diagram id="bhxql2ACk3GSjXYLKRwP" name="Tipper_Raceday">
    <mxGraphModel dx="1422" dy="705" grid="1" gridSize="10" guides="1" tooltips="1" connect="1" arrows="1" fold="1" page="1" pageScale="1" pageWidth="827" pageHeight="1169" math="0" shadow="0">
      <root>
        <mxCell id="0" />
        <mxCell id="1" parent="0" />
        <mxCell id="jD8r5YBM3LVZ6AiH5WHl-1" value="" style="swimlane;startSize=0;labelBackgroundColor=none;fontColor=#FF3333;" vertex="1" parent="1">
          <mxGeometry x="170" y="410" width="660" height="1904" as="geometry" />
        </mxCell>
        <mxCell id="jD8r5YBM3LVZ6AiH5WHl-2" value="Tipper Raceday" style="text;html=1;strokeColor=none;fillColor=none;align=center;verticalAlign=middle;whiteSpace=wrap;rounded=0;labelBackgroundColor=none;fontColor=#FF3333;" vertex="1" parent="jD8r5YBM3LVZ6AiH5WHl-1">
          <mxGeometry x="30" y="20" width="60" height="30" as="geometry" />
        </mxCell>
        <mxCell id="jD8r5YBM3LVZ6AiH5WHl-3" value="Data Merge" style="swimlane;fontStyle=2;align=center;verticalAlign=top;childLayout=stackLayout;horizontal=1;startSize=26;horizontalStack=0;resizeParent=1;resizeLast=0;collapsible=1;marginBottom=0;rounded=0;shadow=0;strokeWidth=1;" vertex="1" parent="jD8r5YBM3LVZ6AiH5WHl-1">
          <mxGeometry x="190" y="570" width="160" height="170" as="geometry">
            <mxRectangle x="230" y="140" width="160" height="26" as="alternateBounds" />
          </mxGeometry>
        </mxCell>
        <mxCell id="jD8r5YBM3LVZ6AiH5WHl-4" value="Tipper Ratings.*&#xa;Raceday Query.*" style="text;align=left;verticalAlign=top;spacingLeft=4;spacingRight=4;overflow=hidden;rotatable=0;points=[[0,0.5],[1,0.5]];portConstraint=eastwest;" vertex="1" parent="jD8r5YBM3LVZ6AiH5WHl-3">
          <mxGeometry y="26" width="160" height="44" as="geometry" />
        </mxCell>
        <mxCell id="jD8r5YBM3LVZ6AiH5WHl-5" value="" style="line;html=1;strokeWidth=1;align=left;verticalAlign=middle;spacingTop=-1;spacingLeft=3;spacingRight=3;rotatable=0;labelPosition=right;points=[];portConstraint=eastwest;" vertex="1" parent="jD8r5YBM3LVZ6AiH5WHl-3">
          <mxGeometry y="70" width="160" height="8" as="geometry" />
        </mxCell>
        <mxCell id="jD8r5YBM3LVZ6AiH5WHl-6" value="group by:&#xa;VenueId&#xa;TipsterId&#xa;PriceIndex&#xa;Position&#xa;ExpertTipper&#xa;" style="text;align=left;verticalAlign=top;spacingLeft=4;spacingRight=4;overflow=hidden;rotatable=0;points=[[0,0.5],[1,0.5]];portConstraint=eastwest;" vertex="1" parent="jD8r5YBM3LVZ6AiH5WHl-3">
          <mxGeometry y="78" width="160" height="92" as="geometry" />
        </mxCell>
        <mxCell id="jD8r5YBM3LVZ6AiH5WHl-7" value="Selection &amp; Staking" style="swimlane;fontStyle=2;align=center;verticalAlign=top;childLayout=stackLayout;horizontal=1;startSize=26;horizontalStack=0;resizeParent=1;resizeLast=0;collapsible=1;marginBottom=0;rounded=0;shadow=0;strokeWidth=1;" vertex="1" parent="jD8r5YBM3LVZ6AiH5WHl-1">
          <mxGeometry x="190" y="960" width="160" height="900" as="geometry">
            <mxRectangle x="230" y="140" width="160" height="26" as="alternateBounds" />
          </mxGeometry>
        </mxCell>
        <mxCell id="jD8r5YBM3LVZ6AiH5WHl-8" value="MarketId&#xa;RunnerId&#xa;Date&#xa;StartDate&#xa;Day&#xa;Country&#xa;Venue&#xa;VenueId&#xa;State&#xa;RaceNo&#xa;HorseNo&#xa;HorseName&#xa;IsScratched&#xa;Result&#xa;Win&#xa;FixedPrice&#xa;Updated&#xa;PriceIndex&#xa;FixedPrice_Open&#xa;FixedPrice_11am&#xa;Stake_11am&#xa;Tipper&#xa;TipperId&#xa;Position&#xa;Expert&#xa;Tips&#xa;SR&#xa;ROI_BSP&#xa;BetUnits&#xa;Status&#xa;Version&#xa;MinsToJump&#xa;PriceUpdateToJump&#xa;FlagPriceUpdate&#xa;PriceIndex_Open&#xa;ExpertIndex&#xa;ROI_Min_Expert&#xa;Units_Expert&#xa;Tipper_Top&#xa;TipperId_Top&#xa;Tips_Top&#xa;Position_Top&#xa;SR_Top&#xa;ROI_BSP_Top&#xa;BetUnits_Top&#xa;ROI_Expert&#xa;MRank&#xa;MRank_Open&#xa;FavePrice&#xa;PriceIndex_Fave&#xa;FieldSize&#xa;BetType&#xa;ROI_Min&#xa;ROI_Max&#xa;BackBet&#xa;LayBet&#xa;Bet&#xa;Selection&#xa;SelectionTotal&#xa;Units&#xa;Final_Stake" style="text;align=left;verticalAlign=top;spacingLeft=4;spacingRight=4;overflow=hidden;rotatable=0;points=[[0,0.5],[1,0.5]];portConstraint=eastwest;" vertex="1" parent="jD8r5YBM3LVZ6AiH5WHl-7">
          <mxGeometry y="26" width="160" height="864" as="geometry" />
        </mxCell>
        <mxCell id="jD8r5YBM3LVZ6AiH5WHl-9" value="" style="line;html=1;strokeWidth=1;align=left;verticalAlign=middle;spacingTop=-1;spacingLeft=3;spacingRight=3;rotatable=0;labelPosition=right;points=[];portConstraint=eastwest;" vertex="1" parent="jD8r5YBM3LVZ6AiH5WHl-7">
          <mxGeometry y="890" width="160" height="8" as="geometry" />
        </mxCell>
        <mxCell id="jD8r5YBM3LVZ6AiH5WHl-10" style="edgeStyle=orthogonalEdgeStyle;rounded=0;orthogonalLoop=1;jettySize=auto;html=1;entryX=0.5;entryY=0;entryDx=0;entryDy=0;fontColor=#FF3333;" edge="1" parent="jD8r5YBM3LVZ6AiH5WHl-1" source="jD8r5YBM3LVZ6AiH5WHl-3" target="jD8r5YBM3LVZ6AiH5WHl-7">
          <mxGeometry relative="1" as="geometry" />
        </mxCell>
        <mxCell id="E46SsW7VQeXcnr3CG4mM-7" style="edgeStyle=orthogonalEdgeStyle;rounded=0;orthogonalLoop=1;jettySize=auto;html=1;fontColor=#FF3333;" edge="1" parent="1" source="E46SsW7VQeXcnr3CG4mM-1" target="jD8r5YBM3LVZ6AiH5WHl-3">
          <mxGeometry relative="1" as="geometry" />
        </mxCell>
        <mxCell id="E46SsW7VQeXcnr3CG4mM-1" value="Tipper Ratings" style="swimlane;fontStyle=2;align=center;verticalAlign=top;childLayout=stackLayout;horizontal=1;startSize=26;horizontalStack=0;resizeParent=1;resizeLast=0;collapsible=1;marginBottom=0;rounded=0;shadow=0;strokeWidth=1;" vertex="1" parent="1">
          <mxGeometry x="245" y="550" width="160" height="230" as="geometry">
            <mxRectangle x="230" y="140" width="160" height="26" as="alternateBounds" />
          </mxGeometry>
        </mxCell>
        <mxCell id="E46SsW7VQeXcnr3CG4mM-2" value="VenueId&#xa;TipsterId&#xa;PriceIndex&#xa;Position&#xa;ExpertTipper&#xa;Tipper&#xa;lastTipped&#xa;coordinateTips&#xa;correctTips&#xa;SR&#xa;ROI_BSP&#xa;AWPR_BSP&#xa;RankDate" style="text;align=left;verticalAlign=top;spacingLeft=4;spacingRight=4;overflow=hidden;rotatable=0;points=[[0,0.5],[1,0.5]];portConstraint=eastwest;" vertex="1" parent="E46SsW7VQeXcnr3CG4mM-1">
          <mxGeometry y="26" width="160" height="194" as="geometry" />
        </mxCell>
        <mxCell id="E46SsW7VQeXcnr3CG4mM-3" value="" style="line;html=1;strokeWidth=1;align=left;verticalAlign=middle;spacingTop=-1;spacingLeft=3;spacingRight=3;rotatable=0;labelPosition=right;points=[];portConstraint=eastwest;" vertex="1" parent="E46SsW7VQeXcnr3CG4mM-1">
          <mxGeometry y="220" width="160" height="8" as="geometry" />
        </mxCell>
        <mxCell id="E46SsW7VQeXcnr3CG4mM-8" style="edgeStyle=orthogonalEdgeStyle;rounded=0;orthogonalLoop=1;jettySize=auto;html=1;fontColor=#FF3333;exitX=0.5;exitY=1;exitDx=0;exitDy=0;" edge="1" parent="1" source="E46SsW7VQeXcnr3CG4mM-4">
          <mxGeometry relative="1" as="geometry">
            <mxPoint x="440" y="980" as="targetPoint" />
          </mxGeometry>
        </mxCell>
        <mxCell id="E46SsW7VQeXcnr3CG4mM-4" value="Raceday Query" style="swimlane;fontStyle=0;align=center;verticalAlign=top;childLayout=stackLayout;horizontal=1;startSize=26;horizontalStack=0;resizeParent=1;resizeLast=0;collapsible=1;marginBottom=0;rounded=0;shadow=0;strokeWidth=1;" vertex="1" parent="1">
          <mxGeometry x="600" y="440" width="160" height="434" as="geometry">
            <mxRectangle x="340" y="380" width="170" height="26" as="alternateBounds" />
          </mxGeometry>
        </mxCell>
        <mxCell id="E46SsW7VQeXcnr3CG4mM-5" value="Venue&#xa;RaceNo&#xa;HorseNo&#xa;HorseName&#xa;StartDate&#xa;Updated&#xa;MarketId&#xa;RunnerId&#xa;FixedPrice_11am&#xa;Stake_11am&#xa;Date&#xa;Day&#xa;State&#xa;Country&#xa;VenueId&#xa;Result&#xa;Win&#xa;FixedPrice_Open&#xa;FixedPrice&#xa;priceNumber&#xa;IsScratched&#xa;TipsterId&#xa;Source&#xa;Tipster&#xa;PriceIndex&#xa;Position&#xa;ExpertTipper&#xa;Units" style="text;align=left;verticalAlign=top;spacingLeft=4;spacingRight=4;overflow=hidden;rotatable=0;points=[[0,0.5],[1,0.5]];portConstraint=eastwest;" vertex="1" parent="E46SsW7VQeXcnr3CG4mM-4">
          <mxGeometry y="26" width="160" height="400" as="geometry" />
        </mxCell>
        <mxCell id="E46SsW7VQeXcnr3CG4mM-6" value="" style="line;html=1;strokeWidth=1;align=left;verticalAlign=middle;spacingTop=-1;spacingLeft=3;spacingRight=3;rotatable=0;labelPosition=right;points=[];portConstraint=eastwest;" vertex="1" parent="E46SsW7VQeXcnr3CG4mM-4">
          <mxGeometry y="426" width="160" height="8" as="geometry" />
        </mxCell>
      </root>
    </mxGraphModel>
  </diagram>
  <diagram id="eqTrRZG1gB9bNwaIUVVo" name="Tipper_Modelling">
    <mxGraphModel dx="1422" dy="705" grid="1" gridSize="10" guides="1" tooltips="1" connect="1" arrows="1" fold="1" page="1" pageScale="1" pageWidth="827" pageHeight="1169" math="0" shadow="0">
      <root>
        <mxCell id="0" />
        <mxCell id="1" parent="0" />
        <mxCell id="HJZ-xLwV050UmvbmPUzY-1" value="Staking Table" style="swimlane;fontStyle=0;align=center;verticalAlign=top;childLayout=stackLayout;horizontal=1;startSize=26;horizontalStack=0;resizeParent=1;resizeLast=0;collapsible=1;marginBottom=0;rounded=0;shadow=0;strokeWidth=1;" vertex="1" parent="1">
          <mxGeometry x="320" y="430" width="160" height="310" as="geometry">
            <mxRectangle x="550" y="140" width="160" height="26" as="alternateBounds" />
          </mxGeometry>
        </mxCell>
        <mxCell id="HJZ-xLwV050UmvbmPUzY-2" value="Country&#xa;BetType&#xa;PriceIndex_Fave&#xa;PriceIndex_Open&#xa;PriceIndex&#xa;MRank&#xa;Position&#xa;SelectionTotal&#xa;Tips&#xa;SR&#xa;Profit&#xa;ROI_FP&#xa;ROI_BSP&#xa;ROI_Min&#xa;ROI_Max&#xa;AWPR_FP&#xa;AWPR_BSP&#xa;Units&#xa;TestDays" style="text;align=left;verticalAlign=top;spacingLeft=4;spacingRight=4;overflow=hidden;rotatable=0;points=[[0,0.5],[1,0.5]];portConstraint=eastwest;" vertex="1" parent="HJZ-xLwV050UmvbmPUzY-1">
          <mxGeometry y="26" width="160" height="274" as="geometry" />
        </mxCell>
        <mxCell id="HJZ-xLwV050UmvbmPUzY-3" value="" style="line;html=1;strokeWidth=1;align=left;verticalAlign=middle;spacingTop=-1;spacingLeft=3;spacingRight=3;rotatable=0;labelPosition=right;points=[];portConstraint=eastwest;" vertex="1" parent="HJZ-xLwV050UmvbmPUzY-1">
          <mxGeometry y="300" width="160" height="8" as="geometry" />
        </mxCell>
      </root>
    </mxGraphModel>
  </diagram>
</mxfile>
